<mxfile host="65bd71144e" pages="2">
    <diagram id="liQibgBhxGSAIroR-RBP" name="Final">
        <mxGraphModel dx="1564" dy="1104" grid="0" gridSize="10" guides="1" tooltips="1" connect="1" arrows="1" fold="1" page="1" pageScale="1" pageWidth="1200" pageHeight="700" math="0" shadow="0">
            <root>
                <mxCell id="0"/>
                <mxCell id="1" parent="0"/>
                <mxCell id="386" value="" style="rounded=1;whiteSpace=wrap;html=1;fillColor=#ffe6cc;strokeColor=#000000;arcSize=14;" parent="1" vertex="1">
                    <mxGeometry x="722" y="282" width="89" height="106.61" as="geometry"/>
                </mxCell>
                <mxCell id="374" value="" style="rounded=1;whiteSpace=wrap;html=1;fillColor=#E9F0EE;strokeColor=#000000;arcSize=11;" parent="1" vertex="1">
                    <mxGeometry x="723" y="397" width="87" height="193.26" as="geometry"/>
                </mxCell>
                <mxCell id="lgitm_aCLKtaHcFgOGSM-13" value="" style="rounded=1;whiteSpace=wrap;html=1;fillColor=#ffe6cc;strokeColor=#000000;arcSize=5;" parent="1" vertex="1">
                    <mxGeometry x="862" y="282" width="321" height="319" as="geometry"/>
                </mxCell>
                <mxCell id="189" value="" style="rounded=1;whiteSpace=wrap;html=1;fillColor=#f5f5f5;fontColor=#333333;strokeColor=#666666;arcSize=8;movable=1;resizable=1;rotatable=1;deletable=1;editable=1;connectable=1;" parent="1" vertex="1">
                    <mxGeometry x="912.63" y="316.61" width="231.38" height="208.18" as="geometry"/>
                </mxCell>
                <mxCell id="P1_Tf1mKQQPxvqgQwp_o-296" value="" style="rounded=1;html=1;arcSize=14;labelPosition=center;verticalLabelPosition=middle;align=center;verticalAlign=middle;whiteSpace=wrap;fillColor=#EDFFF3;strokeColor=#000000;movable=1;resizable=1;rotatable=1;deletable=1;editable=1;connectable=1;" parent="1" vertex="1">
                    <mxGeometry x="50" y="107" width="1130" height="123" as="geometry"/>
                </mxCell>
                <mxCell id="144" value="" style="rounded=1;html=1;arcSize=5;labelPosition=center;verticalLabelPosition=middle;align=center;verticalAlign=middle;whiteSpace=wrap;fillColor=#dae8fc;strokeColor=#000000;movable=1;resizable=1;rotatable=1;deletable=1;editable=1;connectable=1;" parent="1" vertex="1">
                    <mxGeometry x="64.32" y="247.05" width="621" height="333.54" as="geometry"/>
                </mxCell>
                <mxCell id="143" value="" style="rounded=1;html=1;arcSize=5;labelPosition=center;verticalLabelPosition=middle;align=center;verticalAlign=middle;whiteSpace=wrap;fillColor=#dae8fc;strokeColor=#000000;movable=1;resizable=1;rotatable=1;deletable=1;editable=1;connectable=1;" parent="1" vertex="1">
                    <mxGeometry x="58.459999999999994" y="254.44" width="621" height="333.54" as="geometry"/>
                </mxCell>
                <mxCell id="142" value="" style="rounded=1;html=1;arcSize=5;labelPosition=center;verticalLabelPosition=middle;align=center;verticalAlign=middle;whiteSpace=wrap;fillColor=#dae8fc;strokeColor=#000000;movable=1;resizable=1;rotatable=1;deletable=1;editable=1;connectable=1;" parent="1" vertex="1">
                    <mxGeometry x="50" y="262.06" width="621" height="333.54" as="geometry"/>
                </mxCell>
                <mxCell id="140" value="" style="rounded=1;whiteSpace=wrap;html=1;fillColor=#f5f5f5;fontColor=#333333;strokeColor=#666666;arcSize=8;movable=1;resizable=1;rotatable=1;deletable=1;editable=1;connectable=1;" parent="1" vertex="1">
                    <mxGeometry x="889.0100000000001" y="343.33000000000004" width="232" height="208.18" as="geometry"/>
                </mxCell>
                <mxCell id="159" value="" style="rounded=1;whiteSpace=wrap;html=1;fillColor=#f5f5f5;fontColor=#333333;strokeColor=#666666;arcSize=8;movable=1;resizable=1;rotatable=1;deletable=1;editable=1;connectable=1;" parent="1" vertex="1">
                    <mxGeometry x="882.0100000000001" y="350.51000000000005" width="232" height="208.18" as="geometry"/>
                </mxCell>
                <mxCell id="43" value="" style="shape=singleArrow;direction=west;whiteSpace=wrap;html=1;labelBackgroundColor=none;arrowWidth=0.5737474120082802;arrowSize=0.4056165219659669;rotation=270;" parent="1" vertex="1">
                    <mxGeometry x="449.88000000000005" y="196.64" width="36.5" height="87" as="geometry"/>
                </mxCell>
                <mxCell id="42" value="" style="shape=singleArrow;direction=west;whiteSpace=wrap;html=1;labelBackgroundColor=none;arrowWidth=0.5737474120082802;arrowSize=0.4056165219659669;rotation=270;" parent="1" vertex="1">
                    <mxGeometry x="443.74000000000007" y="201.19" width="36.5" height="87" as="geometry"/>
                </mxCell>
                <mxCell id="41" value="" style="shape=singleArrow;direction=west;whiteSpace=wrap;html=1;labelBackgroundColor=none;arrowWidth=0.5737474120082802;arrowSize=0.4056165219659669;rotation=270;" parent="1" vertex="1">
                    <mxGeometry x="436.99000000000007" y="205.19" width="36.5" height="87" as="geometry"/>
                </mxCell>
                <mxCell id="40" value="" style="shape=singleArrow;direction=west;whiteSpace=wrap;html=1;labelBackgroundColor=none;arrowWidth=0.5737474120082802;arrowSize=0.4056165219659669;rotation=270;" parent="1" vertex="1">
                    <mxGeometry x="221.11999999999998" y="196.95" width="36.5" height="91" as="geometry"/>
                </mxCell>
                <mxCell id="39" value="" style="shape=singleArrow;direction=west;whiteSpace=wrap;html=1;labelBackgroundColor=none;arrowWidth=0.5737474120082802;arrowSize=0.4056165219659669;rotation=270;" parent="1" vertex="1">
                    <mxGeometry x="213.61999999999998" y="199.5" width="36.5" height="91" as="geometry"/>
                </mxCell>
                <mxCell id="38" value="" style="shape=singleArrow;direction=west;whiteSpace=wrap;html=1;labelBackgroundColor=none;arrowWidth=0.5737474120082802;arrowSize=0.4056165219659669;rotation=270;" parent="1" vertex="1">
                    <mxGeometry x="205.75" y="203.5" width="36.5" height="91" as="geometry"/>
                </mxCell>
                <mxCell id="lgitm_aCLKtaHcFgOGSM-4" value="" style="rounded=1;html=1;arcSize=5;labelPosition=center;verticalLabelPosition=middle;align=center;verticalAlign=middle;whiteSpace=wrap;fillColor=#dae8fc;strokeColor=#000000;movable=1;resizable=1;rotatable=1;deletable=1;editable=1;connectable=1;" parent="1" vertex="1">
                    <mxGeometry x="44" y="271.55" width="621" height="330.45" as="geometry"/>
                </mxCell>
                <mxCell id="lgitm_aCLKtaHcFgOGSM-7" value="&lt;span style=&quot;color: rgb(0, 0, 0); font-style: normal; font-variant-ligatures: normal; font-variant-caps: normal; letter-spacing: normal; orphans: 2; text-align: center; text-indent: 0px; text-transform: none; widows: 2; word-spacing: 0px; -webkit-text-stroke-width: 0px; text-decoration-thickness: initial; text-decoration-style: initial; text-decoration-color: initial; float: none; display: inline !important;&quot;&gt;&lt;font data-font-src=&quot;https://fonts.googleapis.com/css?family=Linux+Libertine&quot; face=&quot;Linux Libertine&quot; style=&quot;font-size: 14px;&quot;&gt;&lt;b style=&quot;&quot;&gt;Process Element&lt;/b&gt;&lt;/font&gt;&lt;/span&gt;" style="text;whiteSpace=wrap;html=1;labelBackgroundColor=none;" parent="1" vertex="1">
                    <mxGeometry x="273.28000000000003" y="271.00000000000006" width="116.44" height="30" as="geometry"/>
                </mxCell>
                <mxCell id="lgitm_aCLKtaHcFgOGSM-8" value="" style="rounded=1;whiteSpace=wrap;html=1;fillColor=#f5f5f5;fontColor=#333333;strokeColor=#000000;arcSize=9;movable=1;resizable=1;rotatable=1;deletable=1;editable=1;connectable=1;" parent="1" vertex="1">
                    <mxGeometry x="104.37" y="299.45" width="196" height="288.55" as="geometry"/>
                </mxCell>
                <mxCell id="lgitm_aCLKtaHcFgOGSM-14" value="&lt;span style=&quot;color: rgb(0, 0, 0); font-style: normal; font-variant-ligatures: normal; font-variant-caps: normal; letter-spacing: normal; orphans: 2; text-align: center; text-indent: 0px; text-transform: none; widows: 2; word-spacing: 0px; -webkit-text-stroke-width: 0px; text-decoration-thickness: initial; text-decoration-style: initial; text-decoration-color: initial; float: none; display: inline !important;&quot;&gt;&lt;b style=&quot;&quot;&gt;&lt;font data-font-src=&quot;https://fonts.googleapis.com/css?family=Linux+Libertine&quot; face=&quot;Linux Libertine&quot; style=&quot;font-size: 14px;&quot;&gt;Gather Element&lt;/font&gt;&lt;/b&gt;&lt;/span&gt;" style="text;whiteSpace=wrap;html=1;labelBackgroundColor=none;" parent="1" vertex="1">
                    <mxGeometry x="971" y="280.0000000000001" width="114.12" height="28.37" as="geometry"/>
                </mxCell>
                <mxCell id="lgitm_aCLKtaHcFgOGSM-15" value="&lt;font data-font-src=&quot;https://fonts.googleapis.com/css?family=Linux+Libertine&quot; face=&quot;Linux Libertine&quot;&gt;RAM A&lt;/font&gt;" style="rounded=0;whiteSpace=wrap;html=1;fillColor=#d5e8d4;strokeColor=#000000;" parent="1" vertex="1">
                    <mxGeometry x="735.38" y="439.63" width="62" height="59.63" as="geometry"/>
                </mxCell>
                <mxCell id="195" style="edgeStyle=orthogonalEdgeStyle;html=1;strokeColor=default;strokeWidth=1;fontFamily=Linux Libertine;fontSource=https%3A%2F%2Ffonts.googleapis.com%2Fcss%3Ffamily%3DLinux%2BLibertine;fontSize=16;fontColor=#999999;startArrow=none;startFill=0;fillColor=default;" parent="1" source="lgitm_aCLKtaHcFgOGSM-16" edge="1">
                    <mxGeometry relative="1" as="geometry">
                        <mxPoint x="284" y="529" as="targetPoint"/>
                        <Array as="points">
                            <mxPoint x="281" y="529"/>
                        </Array>
                    </mxGeometry>
                </mxCell>
                <mxCell id="lgitm_aCLKtaHcFgOGSM-16" value="&lt;font data-font-src=&quot;https://fonts.googleapis.com/css?family=Linux+Libertine&quot; face=&quot;Linux Libertine&quot;&gt;PE Vertex Mem&lt;/font&gt;" style="rounded=0;whiteSpace=wrap;html=1;fillColor=#d5e8d4;strokeColor=#000000;" parent="1" vertex="1">
                    <mxGeometry x="111.89" y="521" width="97" height="47.78" as="geometry"/>
                </mxCell>
                <mxCell id="lgitm_aCLKtaHcFgOGSM-17" value="" style="shape=singleArrow;direction=west;whiteSpace=wrap;html=1;labelBackgroundColor=none;arrowWidth=0.5737474120082802;arrowSize=0.4056165219659669;rotation=270;" parent="1" vertex="1">
                    <mxGeometry x="198.68000000000004" y="207" width="36.5" height="91" as="geometry"/>
                </mxCell>
                <mxCell id="lgitm_aCLKtaHcFgOGSM-21" value="&lt;font data-font-src=&quot;https://fonts.googleapis.com/css?family=Linux+Libertine&quot; face=&quot;Linux Libertine&quot;&gt;Vertex&lt;br&gt;RAM&lt;/font&gt;" style="rounded=0;whiteSpace=wrap;html=1;fillColor=#d5e8d4;strokeColor=#000000;" parent="1" vertex="1">
                    <mxGeometry x="735.5" y="317.8500000000001" width="62" height="57.88" as="geometry"/>
                </mxCell>
                <mxCell id="lgitm_aCLKtaHcFgOGSM-26" value="" style="rounded=1;whiteSpace=wrap;html=1;fillColor=#f5f5f5;fontColor=#333333;strokeColor=#666666;arcSize=8;movable=1;resizable=1;rotatable=1;deletable=1;editable=1;connectable=1;" parent="1" vertex="1">
                    <mxGeometry x="876.0100000000001" y="358.03000000000003" width="232" height="208.18" as="geometry"/>
                </mxCell>
                <mxCell id="16" value="&lt;font data-font-src=&quot;https://fonts.googleapis.com/css?family=Linux+Libertine&quot; face=&quot;Linux Libertine&quot;&gt;COO&lt;br&gt;Edge&lt;/font&gt;" style="text;html=1;strokeColor=none;fillColor=none;align=center;verticalAlign=middle;whiteSpace=wrap;rounded=0;fontSize=12;" parent="1" vertex="1">
                    <mxGeometry x="205.75" y="235.49999999999994" width="22.18" height="30" as="geometry"/>
                </mxCell>
                <mxCell id="34" value="&lt;font data-font-src=&quot;https://fonts.googleapis.com/css?family=Linux+Libertine&quot; face=&quot;Linux Libertine&quot;&gt;RAM B&lt;/font&gt;" style="rounded=0;whiteSpace=wrap;html=1;fillColor=#d5e8d4;strokeColor=#000000;" parent="1" vertex="1">
                    <mxGeometry x="735.3800000000001" y="514.74" width="61.8" height="57.81" as="geometry"/>
                </mxCell>
                <mxCell id="jgXYTICAqJ4VR1ii6tp_-35" value="" style="shape=singleArrow;direction=south;whiteSpace=wrap;html=1;labelBackgroundColor=none;arrowWidth=0.6801304095426616;arrowSize=0.4691735442120911;rotation=-90;" parent="1" vertex="1">
                    <mxGeometry x="816" y="524.3800000000001" width="43.16" height="41.01" as="geometry"/>
                </mxCell>
                <mxCell id="jgXYTICAqJ4VR1ii6tp_-34" value="&lt;font data-font-src=&quot;https://fonts.googleapis.com/css?family=Linux+Libertine&quot; face=&quot;Linux Libertine&quot;&gt;SpMV&lt;/font&gt;" style="text;html=1;strokeColor=none;fillColor=none;align=center;verticalAlign=middle;whiteSpace=wrap;rounded=0;fontSize=12;" parent="1" vertex="1">
                    <mxGeometry x="816" y="529.09" width="40" height="30" as="geometry"/>
                </mxCell>
                <mxCell id="jgXYTICAqJ4VR1ii6tp_-38" value="" style="shape=singleArrow;direction=south;whiteSpace=wrap;html=1;labelBackgroundColor=none;arrowWidth=0.6801304095426616;arrowSize=0.4691735442120911;rotation=-90;dashed=1;strokeColor=#999999;" parent="1" vertex="1">
                    <mxGeometry x="816" y="449.28" width="43" height="41.91" as="geometry"/>
                </mxCell>
                <mxCell id="jgXYTICAqJ4VR1ii6tp_-39" value="&lt;font data-font-src=&quot;https://fonts.googleapis.com/css?family=Linux+Libertine&quot; face=&quot;Linux Libertine&quot;&gt;SpMV&lt;/font&gt;" style="text;html=1;strokeColor=none;fillColor=none;align=center;verticalAlign=middle;whiteSpace=wrap;rounded=0;fontSize=12;fontColor=#999999;" parent="1" vertex="1">
                    <mxGeometry x="819.24" y="455.53" width="34" height="30" as="geometry"/>
                </mxCell>
                <mxCell id="35" value="" style="rounded=1;whiteSpace=wrap;html=1;fillColor=#f5f5f5;fontColor=#333333;strokeColor=#000000;arcSize=6;" parent="1" vertex="1">
                    <mxGeometry x="357.14" y="299.45" width="302.86" height="288.55" as="geometry"/>
                </mxCell>
                <mxCell id="36" value="&lt;span style=&quot;color: rgb(51, 51, 51); font-size: 12px; font-style: normal; font-variant-ligatures: normal; font-variant-caps: normal; letter-spacing: normal; orphans: 2; text-align: center; text-indent: 0px; text-transform: none; widows: 2; word-spacing: 0px; -webkit-text-stroke-width: 0px; text-decoration-thickness: initial; text-decoration-style: initial; text-decoration-color: initial; float: none; display: inline !important;&quot;&gt;&lt;b style=&quot;&quot;&gt;&lt;font style=&quot;&quot; data-font-src=&quot;https://fonts.googleapis.com/css?family=Linux+Libertine&quot; face=&quot;Linux Libertine&quot;&gt;Address Decoder&lt;/font&gt;&lt;/b&gt;&lt;/span&gt;" style="text;whiteSpace=wrap;html=1;" parent="1" vertex="1">
                    <mxGeometry x="152.89000000000001" y="295.69000000000005" width="112.5" height="24.73" as="geometry"/>
                </mxCell>
                <mxCell id="37" value="&lt;span style=&quot;color: rgb(51, 51, 51); font-size: 12px; font-style: normal; font-variant-ligatures: normal; font-variant-caps: normal; letter-spacing: normal; orphans: 2; text-align: center; text-indent: 0px; text-transform: none; widows: 2; word-spacing: 0px; -webkit-text-stroke-width: 0px; text-decoration-thickness: initial; text-decoration-style: initial; text-decoration-color: initial; float: none; display: inline !important;&quot;&gt;&lt;b style=&quot;&quot;&gt;&lt;font style=&quot;&quot; data-font-src=&quot;https://fonts.googleapis.com/css?family=Linux+Libertine&quot; face=&quot;Linux Libertine&quot;&gt;ALU&lt;/font&gt;&lt;/b&gt;&lt;/span&gt;" style="text;whiteSpace=wrap;html=1;" parent="1" vertex="1">
                    <mxGeometry x="490.95" y="295.69" width="38" height="25.24" as="geometry"/>
                </mxCell>
                <mxCell id="P1_Tf1mKQQPxvqgQwp_o-137" value="&lt;br&gt;" style="rounded=1;whiteSpace=wrap;html=1;arcSize=10;fillColor=#FFFFCC;movable=1;resizable=1;rotatable=1;deletable=1;editable=1;connectable=1;" parent="1" vertex="1">
                    <mxGeometry x="366.1" y="378" width="64.9" height="202" as="geometry"/>
                </mxCell>
                <mxCell id="274" style="rounded=0;html=1;entryX=0.5;entryY=0;entryDx=0;entryDy=0;strokeColor=default;strokeWidth=1;fontFamily=Linux Libertine;fontSource=https%3A%2F%2Ffonts.googleapis.com%2Fcss%3Ffamily%3DLinux%2BLibertine;fontSize=13;fontColor=#000000;startArrow=none;startFill=0;endArrow=none;endFill=0;fillColor=#E6E6E6;" parent="1" source="P1_Tf1mKQQPxvqgQwp_o-134" target="272" edge="1">
                    <mxGeometry relative="1" as="geometry"/>
                </mxCell>
                <mxCell id="403" style="html=1;entryX=0.968;entryY=0.772;entryDx=0;entryDy=0;fontSize=12;fontColor=#000000;fillColor=default;endArrow=none;endFill=0;entryPerimeter=0;" parent="1" source="P1_Tf1mKQQPxvqgQwp_o-134" target="402" edge="1">
                    <mxGeometry relative="1" as="geometry"/>
                </mxCell>
                <mxCell id="405" style="edgeStyle=none;html=1;entryX=1;entryY=0.5;entryDx=0;entryDy=0;fontSize=12;fontColor=#000000;endArrow=none;endFill=0;fillColor=default;" parent="1" source="P1_Tf1mKQQPxvqgQwp_o-134" target="404" edge="1">
                    <mxGeometry relative="1" as="geometry"/>
                </mxCell>
                <mxCell id="P1_Tf1mKQQPxvqgQwp_o-134" value="" style="shape=sumEllipse;perimeter=ellipsePerimeter;whiteSpace=wrap;html=1;backgroundOutline=1;labelBackgroundColor=#FFFFCC;fillColor=#FFFFFF;" parent="1" vertex="1">
                    <mxGeometry x="388.4599999999999" y="390.23" width="15" height="15" as="geometry"/>
                </mxCell>
                <mxCell id="P1_Tf1mKQQPxvqgQwp_o-140" value="" style="shape=sumEllipse;perimeter=ellipsePerimeter;whiteSpace=wrap;html=1;backgroundOutline=1;labelBackgroundColor=#FFFFCC;fillColor=#FFFFFF;" parent="1" vertex="1">
                    <mxGeometry x="388.4599999999999" y="411.65999999999997" width="15" height="15" as="geometry"/>
                </mxCell>
                <mxCell id="P1_Tf1mKQQPxvqgQwp_o-142" value="" style="shape=sumEllipse;perimeter=ellipsePerimeter;whiteSpace=wrap;html=1;backgroundOutline=1;labelBackgroundColor=#FFFFCC;fillColor=#FFFFFF;" parent="1" vertex="1">
                    <mxGeometry x="388.4599999999999" y="432.23999999999995" width="15" height="15" as="geometry"/>
                </mxCell>
                <mxCell id="P1_Tf1mKQQPxvqgQwp_o-143" value="" style="shape=sumEllipse;perimeter=ellipsePerimeter;whiteSpace=wrap;html=1;backgroundOutline=1;labelBackgroundColor=#FFFFCC;fillColor=#FFFFFF;" parent="1" vertex="1">
                    <mxGeometry x="388.4599999999999" y="452.25999999999993" width="15" height="15" as="geometry"/>
                </mxCell>
                <mxCell id="P1_Tf1mKQQPxvqgQwp_o-144" value="" style="shape=sumEllipse;perimeter=ellipsePerimeter;whiteSpace=wrap;html=1;backgroundOutline=1;labelBackgroundColor=#FFFFCC;fillColor=#FFFFFF;" parent="1" vertex="1">
                    <mxGeometry x="388.4599999999999" y="472.84" width="15" height="15" as="geometry"/>
                </mxCell>
                <mxCell id="P1_Tf1mKQQPxvqgQwp_o-145" value="" style="shape=sumEllipse;perimeter=ellipsePerimeter;whiteSpace=wrap;html=1;backgroundOutline=1;labelBackgroundColor=#FFFFCC;fillColor=#FFFFFF;" parent="1" vertex="1">
                    <mxGeometry x="388.4599999999999" y="494.2599999999999" width="15" height="15" as="geometry"/>
                </mxCell>
                <mxCell id="288" style="edgeStyle=none;rounded=0;html=1;entryX=0.5;entryY=0;entryDx=0;entryDy=0;strokeColor=default;strokeWidth=1;fontFamily=Linux Libertine;fontSource=https%3A%2F%2Ffonts.googleapis.com%2Fcss%3Ffamily%3DLinux%2BLibertine;fontSize=13;fontColor=#000000;startArrow=none;startFill=0;endArrow=none;endFill=0;fillColor=#E6E6E6;" parent="1" source="P1_Tf1mKQQPxvqgQwp_o-146" target="287" edge="1">
                    <mxGeometry relative="1" as="geometry"/>
                </mxCell>
                <mxCell id="P1_Tf1mKQQPxvqgQwp_o-146" value="" style="shape=sumEllipse;perimeter=ellipsePerimeter;whiteSpace=wrap;html=1;backgroundOutline=1;labelBackgroundColor=#FFFFCC;fillColor=#FFFFFF;" parent="1" vertex="1">
                    <mxGeometry x="388.4599999999999" y="516.3199999999999" width="15" height="15" as="geometry"/>
                </mxCell>
                <mxCell id="P1_Tf1mKQQPxvqgQwp_o-222" style="edgeStyle=none;html=1;fontSize=9;endArrow=none;endFill=0;" parent="1" source="P1_Tf1mKQQPxvqgQwp_o-147" target="P1_Tf1mKQQPxvqgQwp_o-223" edge="1">
                    <mxGeometry relative="1" as="geometry">
                        <mxPoint x="383.5199999999999" y="553.3199999999999" as="targetPoint"/>
                    </mxGeometry>
                </mxCell>
                <mxCell id="P1_Tf1mKQQPxvqgQwp_o-231" style="edgeStyle=none;html=1;fontSize=9;endArrow=none;endFill=0;" parent="1" source="P1_Tf1mKQQPxvqgQwp_o-147" target="P1_Tf1mKQQPxvqgQwp_o-232" edge="1">
                    <mxGeometry relative="1" as="geometry">
                        <mxPoint x="379.9599999999999" y="564.62" as="targetPoint"/>
                    </mxGeometry>
                </mxCell>
                <mxCell id="292" style="edgeStyle=none;rounded=0;html=1;entryX=0.548;entryY=0.004;entryDx=0;entryDy=0;entryPerimeter=0;strokeColor=default;strokeWidth=1;fontFamily=Linux Libertine;fontSource=https%3A%2F%2Ffonts.googleapis.com%2Fcss%3Ffamily%3DLinux%2BLibertine;fontSize=11;fontColor=#000000;startArrow=none;startFill=0;endArrow=none;endFill=0;fillColor=#E6E6E6;" parent="1" source="P1_Tf1mKQQPxvqgQwp_o-147" target="290" edge="1">
                    <mxGeometry relative="1" as="geometry"/>
                </mxCell>
                <mxCell id="P1_Tf1mKQQPxvqgQwp_o-147" value="" style="shape=sumEllipse;perimeter=ellipsePerimeter;whiteSpace=wrap;html=1;backgroundOutline=1;labelBackgroundColor=#FFFFCC;fillColor=#FFFFFF;" parent="1" vertex="1">
                    <mxGeometry x="388.4599999999999" y="540.9899999999999" width="15" height="15" as="geometry"/>
                </mxCell>
                <mxCell id="P1_Tf1mKQQPxvqgQwp_o-152" value="" style="shape=singleArrow;direction=south;whiteSpace=wrap;html=1;labelBackgroundColor=none;arrowWidth=0.5494699646643076;arrowSize=0.29337312204157223;rotation=-90;" parent="1" vertex="1">
                    <mxGeometry x="303.23" y="427.29" width="50.37" height="42.48" as="geometry"/>
                </mxCell>
                <mxCell id="9" value="&lt;font data-font-src=&quot;https://fonts.googleapis.com/css?family=Linux+Libertine&quot; face=&quot;Linux Libertine&quot; style=&quot;font-size: 12px;&quot;&gt;Edge e&lt;/font&gt;" style="text;html=1;strokeColor=none;fillColor=none;align=center;verticalAlign=middle;whiteSpace=wrap;rounded=0;fontSize=4;" parent="1" vertex="1">
                    <mxGeometry x="305.00000000000006" y="434.83000000000015" width="41.44" height="29.07" as="geometry"/>
                </mxCell>
                <mxCell id="P1_Tf1mKQQPxvqgQwp_o-153" value="" style="shape=table;html=1;whiteSpace=wrap;startSize=0;container=1;collapsible=0;childLayout=tableLayout;labelBackgroundColor=#FFFFCC;fillColor=#FFFFFF;" parent="1" vertex="1">
                    <mxGeometry x="159.73999999999998" y="323.20000000000016" width="36" height="154.3894444444444" as="geometry"/>
                </mxCell>
                <mxCell id="P1_Tf1mKQQPxvqgQwp_o-154" value="" style="shape=tableRow;horizontal=0;startSize=0;swimlaneHead=0;swimlaneBody=0;top=0;left=0;bottom=0;right=0;collapsible=0;dropTarget=0;fillColor=none;points=[[0,0.5],[1,0.5]];portConstraint=eastwest;labelBackgroundColor=#FFFFCC;" parent="P1_Tf1mKQQPxvqgQwp_o-153" vertex="1">
                    <mxGeometry width="36" height="32" as="geometry"/>
                </mxCell>
                <mxCell id="P1_Tf1mKQQPxvqgQwp_o-155" value="&lt;font data-font-src=&quot;https://fonts.googleapis.com/css?family=Linux+Libertine&quot; face=&quot;Linux Libertine&quot; style=&quot;font-size: 12px;&quot;&gt;e.src&lt;/font&gt;" style="shape=partialRectangle;html=1;whiteSpace=wrap;connectable=0;fillColor=none;top=0;left=0;bottom=0;right=0;overflow=hidden;labelBackgroundColor=#FFFFFF;" parent="P1_Tf1mKQQPxvqgQwp_o-154" vertex="1">
                    <mxGeometry width="36" height="32" as="geometry">
                        <mxRectangle width="36" height="32" as="alternateBounds"/>
                    </mxGeometry>
                </mxCell>
                <mxCell id="P1_Tf1mKQQPxvqgQwp_o-158" value="" style="shape=tableRow;horizontal=0;startSize=0;swimlaneHead=0;swimlaneBody=0;top=0;left=0;bottom=0;right=0;collapsible=0;dropTarget=0;fillColor=none;points=[[0,0.5],[1,0.5]];portConstraint=eastwest;labelBackgroundColor=#FFFFCC;" parent="P1_Tf1mKQQPxvqgQwp_o-153" vertex="1">
                    <mxGeometry y="32" width="36" height="15" as="geometry"/>
                </mxCell>
                <mxCell id="P1_Tf1mKQQPxvqgQwp_o-159" value="" style="shape=partialRectangle;html=1;whiteSpace=wrap;connectable=0;fillColor=none;top=0;left=0;bottom=0;right=0;overflow=hidden;labelBackgroundColor=#FFFFCC;" parent="P1_Tf1mKQQPxvqgQwp_o-158" vertex="1">
                    <mxGeometry width="36" height="15" as="geometry">
                        <mxRectangle width="36" height="15" as="alternateBounds"/>
                    </mxGeometry>
                </mxCell>
                <mxCell id="P1_Tf1mKQQPxvqgQwp_o-162" value="" style="shape=tableRow;horizontal=0;startSize=0;swimlaneHead=0;swimlaneBody=0;top=0;left=0;bottom=0;right=0;collapsible=0;dropTarget=0;fillColor=none;points=[[0,0.5],[1,0.5]];portConstraint=eastwest;labelBackgroundColor=#FFFFCC;" parent="P1_Tf1mKQQPxvqgQwp_o-153" vertex="1">
                    <mxGeometry y="47" width="36" height="13" as="geometry"/>
                </mxCell>
                <mxCell id="P1_Tf1mKQQPxvqgQwp_o-163" value="" style="shape=partialRectangle;html=1;whiteSpace=wrap;connectable=0;fillColor=none;top=0;left=0;bottom=0;right=0;overflow=hidden;labelBackgroundColor=#FFFFCC;" parent="P1_Tf1mKQQPxvqgQwp_o-162" vertex="1">
                    <mxGeometry width="36" height="13" as="geometry">
                        <mxRectangle width="36" height="13" as="alternateBounds"/>
                    </mxGeometry>
                </mxCell>
                <mxCell id="P1_Tf1mKQQPxvqgQwp_o-166" style="shape=tableRow;horizontal=0;startSize=0;swimlaneHead=0;swimlaneBody=0;top=0;left=0;bottom=0;right=0;collapsible=0;dropTarget=0;fillColor=none;points=[[0,0.5],[1,0.5]];portConstraint=eastwest;labelBackgroundColor=#FFFFCC;" parent="P1_Tf1mKQQPxvqgQwp_o-153" vertex="1">
                    <mxGeometry y="60" width="36" height="14" as="geometry"/>
                </mxCell>
                <mxCell id="P1_Tf1mKQQPxvqgQwp_o-167" style="shape=partialRectangle;html=1;whiteSpace=wrap;connectable=0;fillColor=none;top=0;left=0;bottom=0;right=0;overflow=hidden;labelBackgroundColor=#FFFFCC;" parent="P1_Tf1mKQQPxvqgQwp_o-166" vertex="1">
                    <mxGeometry width="36" height="14" as="geometry">
                        <mxRectangle width="36" height="14" as="alternateBounds"/>
                    </mxGeometry>
                </mxCell>
                <mxCell id="P1_Tf1mKQQPxvqgQwp_o-168" style="shape=tableRow;horizontal=0;startSize=0;swimlaneHead=0;swimlaneBody=0;top=0;left=0;bottom=0;right=0;collapsible=0;dropTarget=0;fillColor=none;points=[[0,0.5],[1,0.5]];portConstraint=eastwest;labelBackgroundColor=#FFFFCC;" parent="P1_Tf1mKQQPxvqgQwp_o-153" vertex="1">
                    <mxGeometry y="74" width="36" height="14" as="geometry"/>
                </mxCell>
                <mxCell id="P1_Tf1mKQQPxvqgQwp_o-169" style="shape=partialRectangle;html=1;whiteSpace=wrap;connectable=0;fillColor=none;top=0;left=0;bottom=0;right=0;overflow=hidden;labelBackgroundColor=#FFFFCC;" parent="P1_Tf1mKQQPxvqgQwp_o-168" vertex="1">
                    <mxGeometry width="36" height="14" as="geometry">
                        <mxRectangle width="36" height="14" as="alternateBounds"/>
                    </mxGeometry>
                </mxCell>
                <mxCell id="P1_Tf1mKQQPxvqgQwp_o-170" style="shape=tableRow;horizontal=0;startSize=0;swimlaneHead=0;swimlaneBody=0;top=0;left=0;bottom=0;right=0;collapsible=0;dropTarget=0;fillColor=none;points=[[0,0.5],[1,0.5]];portConstraint=eastwest;labelBackgroundColor=#FFFFCC;" parent="P1_Tf1mKQQPxvqgQwp_o-153" vertex="1">
                    <mxGeometry y="88" width="36" height="13" as="geometry"/>
                </mxCell>
                <mxCell id="P1_Tf1mKQQPxvqgQwp_o-171" style="shape=partialRectangle;html=1;whiteSpace=wrap;connectable=0;fillColor=none;top=0;left=0;bottom=0;right=0;overflow=hidden;labelBackgroundColor=#FFFFCC;" parent="P1_Tf1mKQQPxvqgQwp_o-170" vertex="1">
                    <mxGeometry width="36" height="13" as="geometry">
                        <mxRectangle width="36" height="13" as="alternateBounds"/>
                    </mxGeometry>
                </mxCell>
                <mxCell id="P1_Tf1mKQQPxvqgQwp_o-172" style="shape=tableRow;horizontal=0;startSize=0;swimlaneHead=0;swimlaneBody=0;top=0;left=0;bottom=0;right=0;collapsible=0;dropTarget=0;fillColor=none;points=[[0,0.5],[1,0.5]];portConstraint=eastwest;labelBackgroundColor=#FFFFCC;" parent="P1_Tf1mKQQPxvqgQwp_o-153" vertex="1">
                    <mxGeometry y="101" width="36" height="13" as="geometry"/>
                </mxCell>
                <mxCell id="P1_Tf1mKQQPxvqgQwp_o-173" style="shape=partialRectangle;html=1;whiteSpace=wrap;connectable=0;fillColor=none;top=0;left=0;bottom=0;right=0;overflow=hidden;labelBackgroundColor=#FFFFCC;" parent="P1_Tf1mKQQPxvqgQwp_o-172" vertex="1">
                    <mxGeometry width="36" height="13" as="geometry">
                        <mxRectangle width="36" height="13" as="alternateBounds"/>
                    </mxGeometry>
                </mxCell>
                <mxCell id="P1_Tf1mKQQPxvqgQwp_o-174" style="shape=tableRow;horizontal=0;startSize=0;swimlaneHead=0;swimlaneBody=0;top=0;left=0;bottom=0;right=0;collapsible=0;dropTarget=0;fillColor=none;points=[[0,0.5],[1,0.5]];portConstraint=eastwest;labelBackgroundColor=#FFFFCC;" parent="P1_Tf1mKQQPxvqgQwp_o-153" vertex="1">
                    <mxGeometry y="114" width="36" height="14" as="geometry"/>
                </mxCell>
                <mxCell id="P1_Tf1mKQQPxvqgQwp_o-175" style="shape=partialRectangle;html=1;whiteSpace=wrap;connectable=0;fillColor=none;top=0;left=0;bottom=0;right=0;overflow=hidden;labelBackgroundColor=#FFFFCC;" parent="P1_Tf1mKQQPxvqgQwp_o-174" vertex="1">
                    <mxGeometry width="36" height="14" as="geometry">
                        <mxRectangle width="36" height="14" as="alternateBounds"/>
                    </mxGeometry>
                </mxCell>
                <mxCell id="P1_Tf1mKQQPxvqgQwp_o-176" style="shape=tableRow;horizontal=0;startSize=0;swimlaneHead=0;swimlaneBody=0;top=0;left=0;bottom=0;right=0;collapsible=0;dropTarget=0;fillColor=none;points=[[0,0.5],[1,0.5]];portConstraint=eastwest;labelBackgroundColor=#FFFFCC;" parent="P1_Tf1mKQQPxvqgQwp_o-153" vertex="1">
                    <mxGeometry y="128" width="36" height="13" as="geometry"/>
                </mxCell>
                <mxCell id="P1_Tf1mKQQPxvqgQwp_o-177" style="shape=partialRectangle;html=1;whiteSpace=wrap;connectable=0;fillColor=none;top=0;left=0;bottom=0;right=0;overflow=hidden;labelBackgroundColor=#FFFFCC;" parent="P1_Tf1mKQQPxvqgQwp_o-176" vertex="1">
                    <mxGeometry width="36" height="13" as="geometry">
                        <mxRectangle width="36" height="13" as="alternateBounds"/>
                    </mxGeometry>
                </mxCell>
                <mxCell id="P1_Tf1mKQQPxvqgQwp_o-178" style="shape=tableRow;horizontal=0;startSize=0;swimlaneHead=0;swimlaneBody=0;top=0;left=0;bottom=0;right=0;collapsible=0;dropTarget=0;fillColor=none;points=[[0,0.5],[1,0.5]];portConstraint=eastwest;labelBackgroundColor=#FFFFCC;" parent="P1_Tf1mKQQPxvqgQwp_o-153" vertex="1">
                    <mxGeometry y="141" width="36" height="13" as="geometry"/>
                </mxCell>
                <mxCell id="P1_Tf1mKQQPxvqgQwp_o-179" style="shape=partialRectangle;html=1;whiteSpace=wrap;connectable=0;fillColor=none;top=0;left=0;bottom=0;right=0;overflow=hidden;labelBackgroundColor=#FFFFCC;" parent="P1_Tf1mKQQPxvqgQwp_o-178" vertex="1">
                    <mxGeometry width="36" height="13" as="geometry">
                        <mxRectangle width="36" height="13" as="alternateBounds"/>
                    </mxGeometry>
                </mxCell>
                <mxCell id="P1_Tf1mKQQPxvqgQwp_o-180" value="" style="shape=table;html=1;whiteSpace=wrap;startSize=0;container=1;collapsible=0;childLayout=tableLayout;labelBackgroundColor=#FFFFCC;fillColor=#FFFFFF;" parent="1" vertex="1">
                    <mxGeometry x="257.62" y="323.0500000000001" width="36" height="154.3894444444444" as="geometry"/>
                </mxCell>
                <mxCell id="P1_Tf1mKQQPxvqgQwp_o-181" value="" style="shape=tableRow;horizontal=0;startSize=0;swimlaneHead=0;swimlaneBody=0;top=0;left=0;bottom=0;right=0;collapsible=0;dropTarget=0;fillColor=none;points=[[0,0.5],[1,0.5]];portConstraint=eastwest;labelBackgroundColor=#FFFFCC;" parent="P1_Tf1mKQQPxvqgQwp_o-180" vertex="1">
                    <mxGeometry width="36" height="32" as="geometry"/>
                </mxCell>
                <mxCell id="P1_Tf1mKQQPxvqgQwp_o-182" value="&lt;font data-font-src=&quot;https://fonts.googleapis.com/css?family=Linux+Libertine&quot; face=&quot;Linux Libertine&quot; style=&quot;font-size: 12px;&quot;&gt;e.src&lt;/font&gt;" style="shape=partialRectangle;html=1;whiteSpace=wrap;connectable=0;fillColor=none;top=0;left=0;bottom=0;right=0;overflow=hidden;labelBackgroundColor=#FFFFFF;" parent="P1_Tf1mKQQPxvqgQwp_o-181" vertex="1">
                    <mxGeometry width="36" height="32" as="geometry">
                        <mxRectangle width="36" height="32" as="alternateBounds"/>
                    </mxGeometry>
                </mxCell>
                <mxCell id="P1_Tf1mKQQPxvqgQwp_o-183" value="" style="shape=tableRow;horizontal=0;startSize=0;swimlaneHead=0;swimlaneBody=0;top=0;left=0;bottom=0;right=0;collapsible=0;dropTarget=0;fillColor=none;points=[[0,0.5],[1,0.5]];portConstraint=eastwest;labelBackgroundColor=#FFFFCC;" parent="P1_Tf1mKQQPxvqgQwp_o-180" vertex="1">
                    <mxGeometry y="32" width="36" height="15" as="geometry"/>
                </mxCell>
                <mxCell id="P1_Tf1mKQQPxvqgQwp_o-184" value="" style="shape=partialRectangle;html=1;whiteSpace=wrap;connectable=0;fillColor=none;top=0;left=0;bottom=0;right=0;overflow=hidden;labelBackgroundColor=#FFFFCC;" parent="P1_Tf1mKQQPxvqgQwp_o-183" vertex="1">
                    <mxGeometry width="36" height="15" as="geometry">
                        <mxRectangle width="36" height="15" as="alternateBounds"/>
                    </mxGeometry>
                </mxCell>
                <mxCell id="P1_Tf1mKQQPxvqgQwp_o-185" value="" style="shape=tableRow;horizontal=0;startSize=0;swimlaneHead=0;swimlaneBody=0;top=0;left=0;bottom=0;right=0;collapsible=0;dropTarget=0;fillColor=none;points=[[0,0.5],[1,0.5]];portConstraint=eastwest;labelBackgroundColor=#FFFFCC;" parent="P1_Tf1mKQQPxvqgQwp_o-180" vertex="1">
                    <mxGeometry y="47" width="36" height="13" as="geometry"/>
                </mxCell>
                <mxCell id="P1_Tf1mKQQPxvqgQwp_o-186" value="" style="shape=partialRectangle;html=1;whiteSpace=wrap;connectable=0;fillColor=none;top=0;left=0;bottom=0;right=0;overflow=hidden;labelBackgroundColor=#FFFFCC;" parent="P1_Tf1mKQQPxvqgQwp_o-185" vertex="1">
                    <mxGeometry width="36" height="13" as="geometry">
                        <mxRectangle width="36" height="13" as="alternateBounds"/>
                    </mxGeometry>
                </mxCell>
                <mxCell id="P1_Tf1mKQQPxvqgQwp_o-187" style="shape=tableRow;horizontal=0;startSize=0;swimlaneHead=0;swimlaneBody=0;top=0;left=0;bottom=0;right=0;collapsible=0;dropTarget=0;fillColor=none;points=[[0,0.5],[1,0.5]];portConstraint=eastwest;labelBackgroundColor=#FFFFCC;" parent="P1_Tf1mKQQPxvqgQwp_o-180" vertex="1">
                    <mxGeometry y="60" width="36" height="14" as="geometry"/>
                </mxCell>
                <mxCell id="P1_Tf1mKQQPxvqgQwp_o-188" style="shape=partialRectangle;html=1;whiteSpace=wrap;connectable=0;fillColor=none;top=0;left=0;bottom=0;right=0;overflow=hidden;labelBackgroundColor=#FFFFCC;" parent="P1_Tf1mKQQPxvqgQwp_o-187" vertex="1">
                    <mxGeometry width="36" height="14" as="geometry">
                        <mxRectangle width="36" height="14" as="alternateBounds"/>
                    </mxGeometry>
                </mxCell>
                <mxCell id="P1_Tf1mKQQPxvqgQwp_o-189" style="shape=tableRow;horizontal=0;startSize=0;swimlaneHead=0;swimlaneBody=0;top=0;left=0;bottom=0;right=0;collapsible=0;dropTarget=0;fillColor=none;points=[[0,0.5],[1,0.5]];portConstraint=eastwest;labelBackgroundColor=#FFFFCC;" parent="P1_Tf1mKQQPxvqgQwp_o-180" vertex="1">
                    <mxGeometry y="74" width="36" height="14" as="geometry"/>
                </mxCell>
                <mxCell id="P1_Tf1mKQQPxvqgQwp_o-190" style="shape=partialRectangle;html=1;whiteSpace=wrap;connectable=0;fillColor=none;top=0;left=0;bottom=0;right=0;overflow=hidden;labelBackgroundColor=#FFFFCC;" parent="P1_Tf1mKQQPxvqgQwp_o-189" vertex="1">
                    <mxGeometry width="36" height="14" as="geometry">
                        <mxRectangle width="36" height="14" as="alternateBounds"/>
                    </mxGeometry>
                </mxCell>
                <mxCell id="P1_Tf1mKQQPxvqgQwp_o-191" style="shape=tableRow;horizontal=0;startSize=0;swimlaneHead=0;swimlaneBody=0;top=0;left=0;bottom=0;right=0;collapsible=0;dropTarget=0;fillColor=none;points=[[0,0.5],[1,0.5]];portConstraint=eastwest;labelBackgroundColor=#FFFFCC;" parent="P1_Tf1mKQQPxvqgQwp_o-180" vertex="1">
                    <mxGeometry y="88" width="36" height="13" as="geometry"/>
                </mxCell>
                <mxCell id="P1_Tf1mKQQPxvqgQwp_o-192" style="shape=partialRectangle;html=1;whiteSpace=wrap;connectable=0;fillColor=none;top=0;left=0;bottom=0;right=0;overflow=hidden;labelBackgroundColor=#FFFFCC;" parent="P1_Tf1mKQQPxvqgQwp_o-191" vertex="1">
                    <mxGeometry width="36" height="13" as="geometry">
                        <mxRectangle width="36" height="13" as="alternateBounds"/>
                    </mxGeometry>
                </mxCell>
                <mxCell id="P1_Tf1mKQQPxvqgQwp_o-193" style="shape=tableRow;horizontal=0;startSize=0;swimlaneHead=0;swimlaneBody=0;top=0;left=0;bottom=0;right=0;collapsible=0;dropTarget=0;fillColor=none;points=[[0,0.5],[1,0.5]];portConstraint=eastwest;labelBackgroundColor=#FFFFCC;" parent="P1_Tf1mKQQPxvqgQwp_o-180" vertex="1">
                    <mxGeometry y="101" width="36" height="13" as="geometry"/>
                </mxCell>
                <mxCell id="P1_Tf1mKQQPxvqgQwp_o-194" style="shape=partialRectangle;html=1;whiteSpace=wrap;connectable=0;fillColor=none;top=0;left=0;bottom=0;right=0;overflow=hidden;labelBackgroundColor=#FFFFCC;" parent="P1_Tf1mKQQPxvqgQwp_o-193" vertex="1">
                    <mxGeometry width="36" height="13" as="geometry">
                        <mxRectangle width="36" height="13" as="alternateBounds"/>
                    </mxGeometry>
                </mxCell>
                <mxCell id="P1_Tf1mKQQPxvqgQwp_o-195" style="shape=tableRow;horizontal=0;startSize=0;swimlaneHead=0;swimlaneBody=0;top=0;left=0;bottom=0;right=0;collapsible=0;dropTarget=0;fillColor=none;points=[[0,0.5],[1,0.5]];portConstraint=eastwest;labelBackgroundColor=#FFFFCC;" parent="P1_Tf1mKQQPxvqgQwp_o-180" vertex="1">
                    <mxGeometry y="114" width="36" height="14" as="geometry"/>
                </mxCell>
                <mxCell id="P1_Tf1mKQQPxvqgQwp_o-196" style="shape=partialRectangle;html=1;whiteSpace=wrap;connectable=0;fillColor=none;top=0;left=0;bottom=0;right=0;overflow=hidden;labelBackgroundColor=#FFFFCC;" parent="P1_Tf1mKQQPxvqgQwp_o-195" vertex="1">
                    <mxGeometry width="36" height="14" as="geometry">
                        <mxRectangle width="36" height="14" as="alternateBounds"/>
                    </mxGeometry>
                </mxCell>
                <mxCell id="P1_Tf1mKQQPxvqgQwp_o-197" style="shape=tableRow;horizontal=0;startSize=0;swimlaneHead=0;swimlaneBody=0;top=0;left=0;bottom=0;right=0;collapsible=0;dropTarget=0;fillColor=none;points=[[0,0.5],[1,0.5]];portConstraint=eastwest;labelBackgroundColor=#FFFFCC;" parent="P1_Tf1mKQQPxvqgQwp_o-180" vertex="1">
                    <mxGeometry y="128" width="36" height="13" as="geometry"/>
                </mxCell>
                <mxCell id="P1_Tf1mKQQPxvqgQwp_o-198" style="shape=partialRectangle;html=1;whiteSpace=wrap;connectable=0;fillColor=none;top=0;left=0;bottom=0;right=0;overflow=hidden;labelBackgroundColor=#FFFFCC;" parent="P1_Tf1mKQQPxvqgQwp_o-197" vertex="1">
                    <mxGeometry width="36" height="13" as="geometry">
                        <mxRectangle width="36" height="13" as="alternateBounds"/>
                    </mxGeometry>
                </mxCell>
                <mxCell id="P1_Tf1mKQQPxvqgQwp_o-199" style="shape=tableRow;horizontal=0;startSize=0;swimlaneHead=0;swimlaneBody=0;top=0;left=0;bottom=0;right=0;collapsible=0;dropTarget=0;fillColor=none;points=[[0,0.5],[1,0.5]];portConstraint=eastwest;labelBackgroundColor=#FFFFCC;" parent="P1_Tf1mKQQPxvqgQwp_o-180" vertex="1">
                    <mxGeometry y="141" width="36" height="13" as="geometry"/>
                </mxCell>
                <mxCell id="P1_Tf1mKQQPxvqgQwp_o-200" style="shape=partialRectangle;html=1;whiteSpace=wrap;connectable=0;fillColor=none;top=0;left=0;bottom=0;right=0;overflow=hidden;labelBackgroundColor=#FFFFCC;" parent="P1_Tf1mKQQPxvqgQwp_o-199" vertex="1">
                    <mxGeometry width="36" height="13" as="geometry">
                        <mxRectangle width="36" height="13" as="alternateBounds"/>
                    </mxGeometry>
                </mxCell>
                <mxCell id="P1_Tf1mKQQPxvqgQwp_o-211" style="edgeStyle=none;html=1;fontSize=9;endArrow=classic;endFill=1;" parent="1" source="P1_Tf1mKQQPxvqgQwp_o-208" edge="1">
                    <mxGeometry relative="1" as="geometry">
                        <mxPoint x="204.95802816901423" y="443.1452112676057" as="targetPoint"/>
                    </mxGeometry>
                </mxCell>
                <mxCell id="P1_Tf1mKQQPxvqgQwp_o-212" style="edgeStyle=none;html=1;fontSize=9;endArrow=classic;endFill=1;" parent="1" source="P1_Tf1mKQQPxvqgQwp_o-208" edge="1">
                    <mxGeometry relative="1" as="geometry">
                        <mxPoint x="253.12704225352113" y="360.61000000000007" as="targetPoint"/>
                    </mxGeometry>
                </mxCell>
                <mxCell id="P1_Tf1mKQQPxvqgQwp_o-213" style="edgeStyle=none;html=1;fontSize=9;endArrow=classic;endFill=1;" parent="1" source="P1_Tf1mKQQPxvqgQwp_o-208" edge="1">
                    <mxGeometry relative="1" as="geometry">
                        <mxPoint x="252.563661971831" y="443.4269014084508" as="targetPoint"/>
                    </mxGeometry>
                </mxCell>
                <mxCell id="P1_Tf1mKQQPxvqgQwp_o-208" value="&lt;span style=&quot;color: rgb(51, 51, 51); font-size: 12px; font-style: normal; font-variant-ligatures: normal; font-variant-caps: normal; font-weight: 400; letter-spacing: normal; orphans: 2; text-indent: 0px; text-transform: none; widows: 2; word-spacing: 0px; -webkit-text-stroke-width: 0px; text-decoration-thickness: initial; text-decoration-style: initial; text-decoration-color: initial; float: none; display: inline !important;&quot;&gt;&lt;font style=&quot;&quot; data-font-src=&quot;https://fonts.googleapis.com/css?family=Linux+Libertine&quot; face=&quot;Linux Libertine&quot;&gt;Inter&lt;br&gt;Stage&lt;br&gt;Compare&lt;/font&gt;&lt;br&gt;&lt;/span&gt;" style="text;whiteSpace=wrap;html=1;align=center;" parent="1" vertex="1">
                    <mxGeometry x="204.27999999999997" y="374.7200000000001" width="41" height="51.38" as="geometry"/>
                </mxCell>
                <mxCell id="P1_Tf1mKQQPxvqgQwp_o-210" value="" style="endArrow=classic;html=1;fontSize=9;exitX=0.25;exitY=0;exitDx=0;exitDy=0;" parent="1" source="P1_Tf1mKQQPxvqgQwp_o-208" edge="1">
                    <mxGeometry width="50" height="50" relative="1" as="geometry">
                        <mxPoint x="230.61999999999998" y="395.61000000000007" as="sourcePoint"/>
                        <mxPoint x="203.61999999999998" y="360.61000000000007" as="targetPoint"/>
                    </mxGeometry>
                </mxCell>
                <mxCell id="P1_Tf1mKQQPxvqgQwp_o-216" style="edgeStyle=none;html=1;fontSize=9;endArrow=classic;endFill=1;" parent="1" source="P1_Tf1mKQQPxvqgQwp_o-214" edge="1">
                    <mxGeometry relative="1" as="geometry">
                        <mxPoint x="155.51333333333324" y="360.7200000000001" as="targetPoint"/>
                    </mxGeometry>
                </mxCell>
                <mxCell id="P1_Tf1mKQQPxvqgQwp_o-217" style="edgeStyle=none;html=1;fontSize=9;endArrow=classic;endFill=1;" parent="1" source="P1_Tf1mKQQPxvqgQwp_o-214" edge="1">
                    <mxGeometry relative="1" as="geometry">
                        <mxPoint x="156.84666666666672" y="452.38666666666677" as="targetPoint"/>
                    </mxGeometry>
                </mxCell>
                <mxCell id="P1_Tf1mKQQPxvqgQwp_o-214" value="&lt;span style=&quot;color: rgb(51, 51, 51); font-size: 12px; font-style: normal; font-variant-ligatures: normal; font-variant-caps: normal; font-weight: 400; letter-spacing: normal; orphans: 2; text-indent: 0px; text-transform: none; widows: 2; word-spacing: 0px; -webkit-text-stroke-width: 0px; text-decoration-thickness: initial; text-decoration-style: initial; text-decoration-color: initial; float: none; display: inline !important;&quot;&gt;&lt;font style=&quot;&quot; data-font-src=&quot;https://fonts.googleapis.com/css?family=Linux+Libertine&quot; face=&quot;Linux Libertine&quot;&gt;Intra&lt;br&gt;Stage&lt;br&gt;Compare&lt;/font&gt;&lt;br&gt;&lt;/span&gt;" style="text;whiteSpace=wrap;html=1;align=center;" parent="1" vertex="1">
                    <mxGeometry x="112.68" y="374.55000000000007" width="41" height="51.38" as="geometry"/>
                </mxCell>
                <mxCell id="P1_Tf1mKQQPxvqgQwp_o-223" value="&lt;i&gt;&lt;font data-font-src=&quot;https://fonts.googleapis.com/css?family=Linux+Libertine&quot; face=&quot;Linux Libertine&quot;&gt;v&lt;/font&gt;&lt;/i&gt;" style="text;html=1;strokeColor=none;fillColor=none;align=center;verticalAlign=middle;whiteSpace=wrap;rounded=0;fontSize=12;" parent="1" vertex="1">
                    <mxGeometry x="364.06" y="548.58" width="17.94" height="19.65" as="geometry"/>
                </mxCell>
                <mxCell id="P1_Tf1mKQQPxvqgQwp_o-226" value="" style="shape=singleArrow;direction=south;whiteSpace=wrap;html=1;labelBackgroundColor=none;arrowWidth=0.7529042400700023;arrowSize=0.3410012292799076;rotation=-90;" parent="1" vertex="1">
                    <mxGeometry x="291.69" y="331" width="77.32" height="44.73" as="geometry"/>
                </mxCell>
                <mxCell id="P1_Tf1mKQQPxvqgQwp_o-227" value="&lt;font data-font-src=&quot;https://fonts.googleapis.com/css?family=Linux+Libertine&quot; face=&quot;Linux Libertine&quot; style=&quot;font-size: 12px;&quot;&gt;Hazard Table&lt;/font&gt;" style="text;html=1;strokeColor=none;fillColor=none;align=center;verticalAlign=middle;whiteSpace=wrap;rounded=0;fontSize=4;" parent="1" vertex="1">
                    <mxGeometry x="307.97" y="339.85" width="41.44" height="29.07" as="geometry"/>
                </mxCell>
                <mxCell id="P1_Tf1mKQQPxvqgQwp_o-228" value="" style="shape=singleArrow;direction=south;whiteSpace=wrap;html=1;labelBackgroundColor=none;arrowWidth=0.7090254706255685;arrowSize=0.30368606699565903;rotation=-90;" parent="1" vertex="1">
                    <mxGeometry x="290.64" y="502.11" width="79.16" height="46.03" as="geometry"/>
                </mxCell>
                <mxCell id="P1_Tf1mKQQPxvqgQwp_o-229" value="&lt;font data-font-src=&quot;https://fonts.googleapis.com/css?family=Linux+Libertine&quot; face=&quot;Linux Libertine&quot; style=&quot;font-size: 12px;&quot;&gt;Vertex v&lt;br&gt;&lt;span style=&quot;color: rgb(51, 51, 51);&quot;&gt;spmv&lt;/span&gt;&lt;sub style=&quot;border-color: var(--border-color); color: rgb(51, 51, 51);&quot;&gt;old&lt;/sub&gt;&lt;br&gt;&lt;/font&gt;" style="text;html=1;strokeColor=none;fillColor=none;align=center;verticalAlign=middle;whiteSpace=wrap;rounded=0;fontSize=4;" parent="1" vertex="1">
                    <mxGeometry x="303.92999999999995" y="510.59000000000003" width="48.97" height="29.07" as="geometry"/>
                </mxCell>
                <mxCell id="P1_Tf1mKQQPxvqgQwp_o-232" value="&lt;i&gt;&lt;font data-font-src=&quot;https://fonts.googleapis.com/css?family=Linux+Libertine&quot; face=&quot;Linux Libertine&quot;&gt;e&lt;/font&gt;&lt;/i&gt;" style="text;html=1;strokeColor=none;fillColor=none;align=center;verticalAlign=middle;whiteSpace=wrap;rounded=0;fontSize=12;" parent="1" vertex="1">
                    <mxGeometry x="364.5199999999999" y="530.3599999999999" width="17.67" height="19.65" as="geometry"/>
                </mxCell>
                <mxCell id="P1_Tf1mKQQPxvqgQwp_o-233" value="&lt;span style=&quot;color: rgb(0, 0, 0); font-style: normal; font-variant-ligatures: normal; font-variant-caps: normal; letter-spacing: normal; orphans: 2; text-indent: 0px; text-transform: none; widows: 2; word-spacing: 0px; -webkit-text-stroke-width: 0px; text-decoration-thickness: initial; text-decoration-style: initial; text-decoration-color: initial; float: none; display: inline !important;&quot;&gt;&lt;b style=&quot;&quot;&gt;&lt;font data-font-src=&quot;https://fonts.googleapis.com/css?family=Linux+Libertine&quot; face=&quot;Linux Libertine&quot; style=&quot;font-size: 14px;&quot;&gt;Ping-Pong &lt;br&gt;SpMV RAM&lt;/font&gt;&lt;/b&gt;&lt;/span&gt;" style="text;whiteSpace=wrap;html=1;labelBackgroundColor=none;align=center;" parent="1" vertex="1">
                    <mxGeometry x="725.96" y="393.58" width="86.66" height="45.54" as="geometry"/>
                </mxCell>
                <mxCell id="P1_Tf1mKQQPxvqgQwp_o-247" value="&lt;span style=&quot;color: rgb(51, 51, 51); font-size: 12px; font-style: normal; font-variant-ligatures: normal; font-variant-caps: normal; letter-spacing: normal; orphans: 2; text-align: center; text-indent: 0px; text-transform: none; widows: 2; word-spacing: 0px; -webkit-text-stroke-width: 0px; text-decoration-thickness: initial; text-decoration-style: initial; text-decoration-color: initial; float: none; display: inline !important;&quot;&gt;&lt;b style=&quot;&quot;&gt;&lt;font style=&quot;&quot; data-font-src=&quot;https://fonts.googleapis.com/css?family=Linux+Libertine&quot; face=&quot;Linux Libertine&quot;&gt;x32&lt;/font&gt;&lt;/b&gt;&lt;/span&gt;" style="text;whiteSpace=wrap;html=1;fontSize=9;" parent="1" vertex="1">
                    <mxGeometry x="1035.26" y="316.18" width="40.5" height="23.67" as="geometry"/>
                </mxCell>
                <mxCell id="P1_Tf1mKQQPxvqgQwp_o-260" style="edgeStyle=none;html=1;entryX=0.5;entryY=0;entryDx=0;entryDy=0;fontSize=9;fontColor=#000000;endArrow=none;endFill=0;" parent="1" source="P1_Tf1mKQQPxvqgQwp_o-249" target="P1_Tf1mKQQPxvqgQwp_o-251" edge="1">
                    <mxGeometry relative="1" as="geometry">
                        <mxPoint x="903.01" y="516.4300000000002" as="sourcePoint"/>
                    </mxGeometry>
                </mxCell>
                <mxCell id="P1_Tf1mKQQPxvqgQwp_o-282" style="edgeStyle=none;html=1;entryX=0;entryY=0.5;entryDx=0;entryDy=0;entryPerimeter=0;fontSize=9;fontColor=#000000;endArrow=none;endFill=0;" parent="1" source="P1_Tf1mKQQPxvqgQwp_o-249" target="P1_Tf1mKQQPxvqgQwp_o-281" edge="1">
                    <mxGeometry relative="1" as="geometry"/>
                </mxCell>
                <mxCell id="P1_Tf1mKQQPxvqgQwp_o-249" value="&lt;font data-font-src=&quot;https://fonts.googleapis.com/css?family=Linux+Libertine&quot; face=&quot;Linux Libertine&quot;&gt;x&lt;/font&gt;" style="text;html=1;strokeColor=none;fillColor=none;align=center;verticalAlign=middle;whiteSpace=wrap;rounded=0;fontSize=12;" parent="1" vertex="1">
                    <mxGeometry x="901.01" y="379.27000000000015" width="21" height="24.34" as="geometry"/>
                </mxCell>
                <mxCell id="P1_Tf1mKQQPxvqgQwp_o-276" style="edgeStyle=none;html=1;entryX=0.066;entryY=0.234;entryDx=0;entryDy=0;entryPerimeter=0;fontSize=9;fontColor=#000000;endArrow=none;endFill=0;exitX=1.009;exitY=0.654;exitDx=0;exitDy=0;exitPerimeter=0;" parent="1" source="P1_Tf1mKQQPxvqgQwp_o-250" target="P1_Tf1mKQQPxvqgQwp_o-275" edge="1">
                    <mxGeometry relative="1" as="geometry"/>
                </mxCell>
                <mxCell id="P1_Tf1mKQQPxvqgQwp_o-250" value="&lt;font data-font-src=&quot;https://fonts.googleapis.com/css?family=Linux+Libertine&quot; face=&quot;Linux Libertine&quot;&gt;y&lt;/font&gt;" style="text;html=1;strokeColor=none;fillColor=none;align=center;verticalAlign=middle;whiteSpace=wrap;rounded=0;fontSize=12;" parent="1" vertex="1">
                    <mxGeometry x="900.51" y="407.3900000000001" width="21" height="24.34" as="geometry"/>
                </mxCell>
                <mxCell id="P1_Tf1mKQQPxvqgQwp_o-270" style="edgeStyle=none;html=1;entryX=0.133;entryY=0.17;entryDx=0;entryDy=0;entryPerimeter=0;fontSize=9;fontColor=#000000;endArrow=none;endFill=0;" parent="1" source="P1_Tf1mKQQPxvqgQwp_o-251" target="P1_Tf1mKQQPxvqgQwp_o-268" edge="1">
                    <mxGeometry relative="1" as="geometry"/>
                </mxCell>
                <mxCell id="P1_Tf1mKQQPxvqgQwp_o-251" value="" style="shape=sumEllipse;perimeter=ellipsePerimeter;whiteSpace=wrap;html=1;backgroundOutline=1;labelBackgroundColor=#FFFFCC;fillColor=#FFFFFF;" parent="1" vertex="1">
                    <mxGeometry x="926.01" y="445.4200000000002" width="15" height="15" as="geometry"/>
                </mxCell>
                <mxCell id="P1_Tf1mKQQPxvqgQwp_o-257" style="edgeStyle=none;html=1;entryX=0.156;entryY=0.223;entryDx=0;entryDy=0;entryPerimeter=0;fontSize=9;fontColor=#000000;endArrow=none;endFill=0;" parent="1" target="P1_Tf1mKQQPxvqgQwp_o-256" edge="1">
                    <mxGeometry relative="1" as="geometry">
                        <mxPoint x="897.53" y="452.27977434679343" as="sourcePoint"/>
                    </mxGeometry>
                </mxCell>
                <mxCell id="P1_Tf1mKQQPxvqgQwp_o-254" value="&lt;span style=&quot;font-family: sans-serif; font-size: 12.7724px; font-style: normal; font-variant-ligatures: normal; font-variant-caps: normal; font-weight: 400; letter-spacing: normal; orphans: 2; text-align: start; text-indent: 0px; text-transform: none; widows: 2; word-spacing: 0px; -webkit-text-stroke-width: 0px; text-decoration-thickness: initial; text-decoration-style: initial; text-decoration-color: initial; float: none; display: inline !important; background-color: rgb(245, 245, 245);&quot;&gt;𝛼&lt;/span&gt;" style="text;whiteSpace=wrap;html=1;fontSize=9;" parent="1" vertex="1">
                    <mxGeometry x="885.51" y="434.5400000000001" width="14" height="26" as="geometry"/>
                </mxCell>
                <mxCell id="P1_Tf1mKQQPxvqgQwp_o-259" style="edgeStyle=none;html=1;entryX=0.086;entryY=0.773;entryDx=0;entryDy=0;entryPerimeter=0;fontSize=9;fontColor=#000000;endArrow=none;endFill=0;" parent="1" source="P1_Tf1mKQQPxvqgQwp_o-255" target="P1_Tf1mKQQPxvqgQwp_o-256" edge="1">
                    <mxGeometry relative="1" as="geometry"/>
                </mxCell>
                <mxCell id="P1_Tf1mKQQPxvqgQwp_o-255" value="&lt;font data-font-src=&quot;https://fonts.googleapis.com/css?family=Linux+Libertine&quot; face=&quot;Linux Libertine&quot;&gt;-1&lt;/font&gt;" style="text;html=1;strokeColor=none;fillColor=none;align=center;verticalAlign=middle;whiteSpace=wrap;rounded=0;fontSize=12;" parent="1" vertex="1">
                    <mxGeometry x="883.53" y="465.75000000000006" width="12.41" height="19.65" as="geometry"/>
                </mxCell>
                <mxCell id="P1_Tf1mKQQPxvqgQwp_o-261" style="edgeStyle=none;html=1;entryX=0.093;entryY=0.796;entryDx=0;entryDy=0;entryPerimeter=0;fontSize=9;fontColor=#000000;endArrow=none;endFill=0;exitX=0.992;exitY=0.455;exitDx=0;exitDy=0;exitPerimeter=0;" parent="1" source="P1_Tf1mKQQPxvqgQwp_o-256" target="P1_Tf1mKQQPxvqgQwp_o-251" edge="1">
                    <mxGeometry relative="1" as="geometry"/>
                </mxCell>
                <mxCell id="P1_Tf1mKQQPxvqgQwp_o-256" value="" style="verticalLabelPosition=bottom;shadow=0;dashed=0;align=center;html=1;verticalAlign=top;shape=mxgraph.electrical.abstract.summation_point;strokeWidth=1;fontColor=#FF0000;" parent="1" vertex="1">
                    <mxGeometry x="905.03" y="455.71000000000004" width="15" height="15" as="geometry"/>
                </mxCell>
                <mxCell id="P1_Tf1mKQQPxvqgQwp_o-265" style="edgeStyle=none;html=1;entryX=0;entryY=0;entryDx=0;entryDy=0;fontSize=9;fontColor=#000000;endArrow=none;endFill=0;exitX=0.624;exitY=1.027;exitDx=0;exitDy=0;exitPerimeter=0;" parent="1" source="P1_Tf1mKQQPxvqgQwp_o-262" target="P1_Tf1mKQQPxvqgQwp_o-264" edge="1">
                    <mxGeometry relative="1" as="geometry"/>
                </mxCell>
                <mxCell id="P1_Tf1mKQQPxvqgQwp_o-262" value="&lt;font data-font-src=&quot;https://fonts.googleapis.com/css?family=Linux+Libertine&quot; face=&quot;Linux Libertine&quot;&gt;spmv&lt;/font&gt;" style="text;html=1;strokeColor=default;fillColor=none;align=center;verticalAlign=middle;whiteSpace=wrap;rounded=0;fontSize=12;rotation=-90;" parent="1" vertex="1">
                    <mxGeometry x="875.21" y="500.35" width="29.98" height="19.06" as="geometry"/>
                </mxCell>
                <mxCell id="P1_Tf1mKQQPxvqgQwp_o-263" value="&lt;span style=&quot;font-family: sans-serif; font-size: 12.7724px; font-style: normal; font-variant-ligatures: normal; font-variant-caps: normal; font-weight: 400; letter-spacing: normal; orphans: 2; text-align: start; text-indent: 0px; text-transform: none; widows: 2; word-spacing: 0px; -webkit-text-stroke-width: 0px; text-decoration-thickness: initial; text-decoration-style: initial; text-decoration-color: initial; float: none; display: inline !important;&quot;&gt;𝛽&lt;/span&gt;" style="text;whiteSpace=wrap;html=1;fontSize=9;fontColor=#000000;fillColor=none;" parent="1" vertex="1">
                    <mxGeometry x="905.01" y="517.0500000000002" width="12" height="15" as="geometry"/>
                </mxCell>
                <mxCell id="P1_Tf1mKQQPxvqgQwp_o-266" style="edgeStyle=none;html=1;fontSize=9;fontColor=#000000;endArrow=none;endFill=0;entryX=1;entryY=0.5;entryDx=0;entryDy=0;" parent="1" source="P1_Tf1mKQQPxvqgQwp_o-264" target="P1_Tf1mKQQPxvqgQwp_o-263" edge="1">
                    <mxGeometry relative="1" as="geometry">
                        <mxPoint x="901.01" y="423.69000000000005" as="targetPoint"/>
                    </mxGeometry>
                </mxCell>
                <mxCell id="P1_Tf1mKQQPxvqgQwp_o-269" style="edgeStyle=none;html=1;fontSize=9;fontColor=#000000;endArrow=none;endFill=0;entryX=0.124;entryY=0.821;entryDx=0;entryDy=0;entryPerimeter=0;" parent="1" source="P1_Tf1mKQQPxvqgQwp_o-264" target="P1_Tf1mKQQPxvqgQwp_o-268" edge="1">
                    <mxGeometry relative="1" as="geometry">
                        <mxPoint x="946.0149999999999" y="480.61500000000007" as="targetPoint"/>
                    </mxGeometry>
                </mxCell>
                <mxCell id="P1_Tf1mKQQPxvqgQwp_o-264" value="" style="shape=sumEllipse;perimeter=ellipsePerimeter;whiteSpace=wrap;html=1;backgroundOutline=1;labelBackgroundColor=#FFFFCC;fillColor=#FFFFFF;" parent="1" vertex="1">
                    <mxGeometry x="922.01" y="502.2700000000002" width="15" height="15" as="geometry"/>
                </mxCell>
                <mxCell id="P1_Tf1mKQQPxvqgQwp_o-274" style="edgeStyle=none;html=1;entryX=0.029;entryY=0.268;entryDx=0;entryDy=0;fontSize=9;fontColor=#000000;endArrow=none;endFill=0;exitX=0.978;exitY=0.584;exitDx=0;exitDy=0;exitPerimeter=0;entryPerimeter=0;" parent="1" source="P1_Tf1mKQQPxvqgQwp_o-268" target="P1_Tf1mKQQPxvqgQwp_o-272" edge="1">
                    <mxGeometry relative="1" as="geometry"/>
                </mxCell>
                <mxCell id="P1_Tf1mKQQPxvqgQwp_o-268" value="" style="verticalLabelPosition=bottom;shadow=0;dashed=0;align=center;html=1;verticalAlign=top;shape=mxgraph.electrical.abstract.summation_point;strokeWidth=1;fontColor=#FF0000;" parent="1" vertex="1">
                    <mxGeometry x="946.01" y="478.6300000000001" width="15" height="15" as="geometry"/>
                </mxCell>
                <mxCell id="P1_Tf1mKQQPxvqgQwp_o-273" style="edgeStyle=none;html=1;entryX=0.5;entryY=1;entryDx=0;entryDy=0;fontSize=9;fontColor=#000000;endArrow=none;endFill=0;exitX=0.5;exitY=0;exitDx=0;exitDy=0;" parent="1" source="P1_Tf1mKQQPxvqgQwp_o-271" target="P1_Tf1mKQQPxvqgQwp_o-272" edge="1">
                    <mxGeometry relative="1" as="geometry"/>
                </mxCell>
                <mxCell id="P1_Tf1mKQQPxvqgQwp_o-280" style="edgeStyle=none;html=1;entryX=0.206;entryY=0.919;entryDx=0;entryDy=0;fontSize=9;fontColor=#000000;endArrow=none;endFill=0;entryPerimeter=0;" parent="1" source="P1_Tf1mKQQPxvqgQwp_o-271" target="P1_Tf1mKQQPxvqgQwp_o-278" edge="1">
                    <mxGeometry relative="1" as="geometry"/>
                </mxCell>
                <mxCell id="P1_Tf1mKQQPxvqgQwp_o-271" value="&lt;span style=&quot;font-family: sans-serif; font-size: 12.7724px; font-style: normal; font-variant-ligatures: normal; font-variant-caps: normal; font-weight: 400; letter-spacing: normal; orphans: 2; text-align: start; text-indent: 0px; text-transform: none; widows: 2; word-spacing: 0px; -webkit-text-stroke-width: 0px; text-decoration-thickness: initial; text-decoration-style: initial; text-decoration-color: initial; float: none; display: inline !important;&quot;&gt;𝛿𝑡&lt;/span&gt;" style="text;whiteSpace=wrap;html=1;fontSize=9;fontColor=#000000;" parent="1" vertex="1">
                    <mxGeometry x="961.0100000000001" y="514.5500000000001" width="17" height="27.85" as="geometry"/>
                </mxCell>
                <mxCell id="P1_Tf1mKQQPxvqgQwp_o-277" style="edgeStyle=none;html=1;entryX=0.236;entryY=0.974;entryDx=0;entryDy=0;entryPerimeter=0;fontSize=9;fontColor=#000000;endArrow=none;endFill=0;" parent="1" source="P1_Tf1mKQQPxvqgQwp_o-272" target="P1_Tf1mKQQPxvqgQwp_o-275" edge="1">
                    <mxGeometry relative="1" as="geometry"/>
                </mxCell>
                <mxCell id="P1_Tf1mKQQPxvqgQwp_o-272" value="" style="shape=sumEllipse;perimeter=ellipsePerimeter;whiteSpace=wrap;html=1;backgroundOutline=1;labelBackgroundColor=#FFFFCC;fillColor=#FFFFFF;" parent="1" vertex="1">
                    <mxGeometry x="970.01" y="490.43000000000006" width="15" height="15" as="geometry"/>
                </mxCell>
                <mxCell id="P1_Tf1mKQQPxvqgQwp_o-279" style="edgeStyle=none;html=1;entryX=0.161;entryY=0.211;entryDx=0;entryDy=0;fontSize=9;fontColor=#000000;endArrow=none;endFill=0;exitX=0.906;exitY=0.795;exitDx=0;exitDy=0;exitPerimeter=0;entryPerimeter=0;" parent="1" source="P1_Tf1mKQQPxvqgQwp_o-275" target="P1_Tf1mKQQPxvqgQwp_o-278" edge="1">
                    <mxGeometry relative="1" as="geometry"/>
                </mxCell>
                <mxCell id="P1_Tf1mKQQPxvqgQwp_o-275" value="" style="verticalLabelPosition=bottom;shadow=0;dashed=0;align=center;html=1;verticalAlign=top;shape=mxgraph.electrical.abstract.summation_point;strokeWidth=1;fontColor=#FF0000;" parent="1" vertex="1">
                    <mxGeometry x="985.26" y="458.9000000000001" width="15" height="15" as="geometry"/>
                </mxCell>
                <mxCell id="P1_Tf1mKQQPxvqgQwp_o-283" style="edgeStyle=none;html=1;entryX=0.381;entryY=0.973;entryDx=0;entryDy=0;entryPerimeter=0;fontSize=9;fontColor=#000000;endArrow=none;endFill=0;" parent="1" source="P1_Tf1mKQQPxvqgQwp_o-278" target="P1_Tf1mKQQPxvqgQwp_o-281" edge="1">
                    <mxGeometry relative="1" as="geometry"/>
                </mxCell>
                <mxCell id="P1_Tf1mKQQPxvqgQwp_o-292" style="edgeStyle=none;html=1;entryX=0;entryY=0.1876169681846538;entryDx=0;entryDy=3;entryPerimeter=0;fontSize=9;fontColor=#000000;endArrow=none;endFill=0;" parent="1" source="P1_Tf1mKQQPxvqgQwp_o-278" target="P1_Tf1mKQQPxvqgQwp_o-291" edge="1">
                    <mxGeometry relative="1" as="geometry"/>
                </mxCell>
                <mxCell id="P1_Tf1mKQQPxvqgQwp_o-278" value="" style="shape=sumEllipse;perimeter=ellipsePerimeter;whiteSpace=wrap;html=1;backgroundOutline=1;labelBackgroundColor=#FFFFCC;fillColor=#FFFFFF;" parent="1" vertex="1">
                    <mxGeometry x="1004.01" y="472.7200000000002" width="15" height="15" as="geometry"/>
                </mxCell>
                <mxCell id="P1_Tf1mKQQPxvqgQwp_o-288" style="edgeStyle=none;html=1;entryX=0;entryY=0.1876169681846538;entryDx=0;entryDy=3;entryPerimeter=0;fontSize=9;fontColor=#000000;endArrow=none;endFill=0;" parent="1" source="P1_Tf1mKQQPxvqgQwp_o-281" target="P1_Tf1mKQQPxvqgQwp_o-286" edge="1">
                    <mxGeometry relative="1" as="geometry"/>
                </mxCell>
                <mxCell id="P1_Tf1mKQQPxvqgQwp_o-281" value="" style="verticalLabelPosition=bottom;shadow=0;dashed=0;align=center;html=1;verticalAlign=top;shape=mxgraph.electrical.abstract.summation_point;strokeWidth=1;fontColor=#FF0000;" parent="1" vertex="1">
                    <mxGeometry x="1014.5100000000001" y="437.65999999999997" width="15" height="15" as="geometry"/>
                </mxCell>
                <mxCell id="P1_Tf1mKQQPxvqgQwp_o-286" value="" style="shadow=0;dashed=0;align=center;html=1;strokeWidth=1;shape=mxgraph.electrical.abstract.mux2;labelBackgroundColor=none;labelBorderColor=none;strokeColor=#000000;fontFamily=Lato;fontSource=https%3A%2F%2Ffonts.googleapis.com%2Fcss%3Ffamily%3DLato;fontColor=#4D4D4D;fillColor=#FFFFFF;direction=south;rotation=-90;flipH=1;flipV=0;" parent="1" vertex="1">
                    <mxGeometry x="1023.4499999999999" y="411.28000000000003" width="64.12" height="32.86" as="geometry"/>
                </mxCell>
                <mxCell id="P1_Tf1mKQQPxvqgQwp_o-287" value="&lt;span style=&quot;color: rgb(77, 77, 77); font-size: 12px; font-style: normal; font-variant-ligatures: normal; font-variant-caps: normal; font-weight: 400; letter-spacing: normal; orphans: 2; text-align: center; text-indent: 0px; text-transform: none; widows: 2; word-spacing: 0px; -webkit-text-stroke-width: 0px; text-decoration-thickness: initial; text-decoration-style: initial; text-decoration-color: initial; float: none; display: inline !important;&quot;&gt;&lt;font data-font-src=&quot;https://fonts.googleapis.com/css?family=Linux+Libertine&quot; face=&quot;Linux Libertine&quot;&gt;x_new in [-1,127]&lt;/font&gt;&lt;/span&gt;" style="text;whiteSpace=wrap;html=1;fontSize=9;fontColor=#000000;" parent="1" vertex="1">
                    <mxGeometry x="1015.26" y="369.22000000000014" width="93" height="25.05" as="geometry"/>
                </mxCell>
                <mxCell id="P1_Tf1mKQQPxvqgQwp_o-289" value="&lt;font data-font-src=&quot;https://fonts.googleapis.com/css?family=Linux+Libertine&quot; face=&quot;Linux Libertine&quot;&gt;0&lt;/font&gt;" style="text;html=1;strokeColor=none;fillColor=none;align=center;verticalAlign=middle;whiteSpace=wrap;rounded=0;fontSize=12;" parent="1" vertex="1">
                    <mxGeometry x="1026.01" y="408.8500000000002" width="12.41" height="19.65" as="geometry"/>
                </mxCell>
                <mxCell id="P1_Tf1mKQQPxvqgQwp_o-290" value="&lt;span style=&quot;color: rgb(77, 77, 77); font-size: 12px; font-style: normal; font-variant-ligatures: normal; font-variant-caps: normal; font-weight: 400; letter-spacing: normal; orphans: 2; text-align: center; text-indent: 0px; text-transform: none; widows: 2; word-spacing: 0px; -webkit-text-stroke-width: 0px; text-decoration-thickness: initial; text-decoration-style: initial; text-decoration-color: initial; float: none; display: inline !important;&quot;&gt;&lt;font data-font-src=&quot;https://fonts.googleapis.com/css?family=Linux+Libertine&quot; face=&quot;Linux Libertine&quot;&gt;x_new&lt;/font&gt;&lt;/span&gt;" style="text;whiteSpace=wrap;html=1;fontSize=9;fontColor=#000000;" parent="1" vertex="1">
                    <mxGeometry x="1062.9999999999998" y="409.36" width="37" height="23.92" as="geometry"/>
                </mxCell>
                <mxCell id="P1_Tf1mKQQPxvqgQwp_o-291" value="" style="shadow=0;dashed=0;align=center;html=1;strokeWidth=1;shape=mxgraph.electrical.abstract.mux2;labelBackgroundColor=none;labelBorderColor=none;strokeColor=#000000;fontFamily=Lato;fontSource=https%3A%2F%2Ffonts.googleapis.com%2Fcss%3Ffamily%3DLato;fontColor=#4D4D4D;fillColor=#FFFFFF;direction=south;rotation=-90;flipH=0;flipV=0;" parent="1" vertex="1">
                    <mxGeometry x="1023.0099999999999" y="493.6300000000002" width="64.12" height="32.86" as="geometry"/>
                </mxCell>
                <mxCell id="P1_Tf1mKQQPxvqgQwp_o-293" value="&lt;span style=&quot;color: rgb(77, 77, 77); font-size: 12px; font-style: normal; font-variant-ligatures: normal; font-variant-caps: normal; font-weight: 400; letter-spacing: normal; orphans: 2; text-align: center; text-indent: 0px; text-transform: none; widows: 2; word-spacing: 0px; -webkit-text-stroke-width: 0px; text-decoration-thickness: initial; text-decoration-style: initial; text-decoration-color: initial; float: none; display: inline !important;&quot;&gt;&lt;font data-font-src=&quot;https://fonts.googleapis.com/css?family=Linux+Libertine&quot; face=&quot;Linux Libertine&quot;&gt;y_new&lt;/font&gt;&lt;/span&gt;" style="text;whiteSpace=wrap;html=1;fontSize=9;fontColor=#000000;" parent="1" vertex="1">
                    <mxGeometry x="1064.1299999999999" y="496.8700000000001" width="37" height="23.92" as="geometry"/>
                </mxCell>
                <mxCell id="P1_Tf1mKQQPxvqgQwp_o-294" value="&lt;font data-font-src=&quot;https://fonts.googleapis.com/css?family=Linux+Libertine&quot; face=&quot;Linux Libertine&quot;&gt;0&lt;/font&gt;" style="text;html=1;strokeColor=none;fillColor=none;align=center;verticalAlign=middle;whiteSpace=wrap;rounded=0;fontSize=12;" parent="1" vertex="1">
                    <mxGeometry x="1026.01" y="506.84000000000026" width="12.41" height="19.65" as="geometry"/>
                </mxCell>
                <mxCell id="P1_Tf1mKQQPxvqgQwp_o-295" value="&lt;span style=&quot;color: rgb(77, 77, 77); font-size: 12px; font-style: normal; font-variant-ligatures: normal; font-variant-caps: normal; font-weight: 400; letter-spacing: normal; orphans: 2; text-align: center; text-indent: 0px; text-transform: none; widows: 2; word-spacing: 0px; -webkit-text-stroke-width: 0px; text-decoration-thickness: initial; text-decoration-style: initial; text-decoration-color: initial; float: none; display: inline !important;&quot;&gt;&lt;font data-font-src=&quot;https://fonts.googleapis.com/css?family=Linux+Libertine&quot; face=&quot;Linux Libertine&quot;&gt;y_new in [-1,127]&lt;/font&gt;&lt;/span&gt;" style="text;whiteSpace=wrap;html=1;fontSize=9;fontColor=#000000;" parent="1" vertex="1">
                    <mxGeometry x="1014.5099999999999" y="537.18" width="93" height="25.05" as="geometry"/>
                </mxCell>
                <mxCell id="P1_Tf1mKQQPxvqgQwp_o-297" value="" style="shape=singleArrow;direction=west;whiteSpace=wrap;html=1;labelBackgroundColor=none;arrowWidth=0.5737474120082802;arrowSize=0.4056165219659669;rotation=270;" parent="1" vertex="1">
                    <mxGeometry x="429.83000000000004" y="208.69" width="36.5" height="87" as="geometry"/>
                </mxCell>
                <mxCell id="P1_Tf1mKQQPxvqgQwp_o-298" value="&lt;font data-font-src=&quot;https://fonts.googleapis.com/css?family=Linux+Libertine&quot; face=&quot;Linux Libertine&quot;&gt;PE&lt;br&gt;Vertex&lt;/font&gt;" style="text;html=1;strokeColor=none;fillColor=none;align=center;verticalAlign=middle;whiteSpace=wrap;rounded=0;fontSize=12;" parent="1" vertex="1">
                    <mxGeometry x="436.99" y="233.68999999999994" width="22.18" height="30" as="geometry"/>
                </mxCell>
                <mxCell id="P1_Tf1mKQQPxvqgQwp_o-218" value="&lt;b style=&quot;border-color: var(--border-color); color: rgb(0, 0, 0); font-size: 14px; font-style: normal; font-variant-ligatures: normal; font-variant-caps: normal; letter-spacing: normal; orphans: 2; text-align: center; text-indent: 0px; text-transform: none; widows: 2; word-spacing: 0px; -webkit-text-stroke-width: 0px; text-decoration-thickness: initial; text-decoration-style: initial; text-decoration-color: initial;&quot;&gt;&lt;font data-font-src=&quot;https://fonts.googleapis.com/css?family=Linux+Libertine&quot; face=&quot;Linux Libertine&quot;&gt;Dispatcher&lt;/font&gt;&lt;/b&gt;" style="text;whiteSpace=wrap;html=1;fontSize=9;" parent="1" vertex="1">
                    <mxGeometry x="268" y="105.72" width="72" height="31" as="geometry"/>
                </mxCell>
                <mxCell id="392" style="edgeStyle=orthogonalEdgeStyle;shape=flexArrow;html=1;fontSize=12;fontColor=#000000;width=9.35483870967742;endSize=5.4960893854748605;endWidth=12.13912416651649;fillColor=default;" parent="1" edge="1">
                    <mxGeometry relative="1" as="geometry">
                        <mxPoint x="431" y="139" as="sourcePoint"/>
                        <mxPoint x="375" y="169.72" as="targetPoint"/>
                        <Array as="points">
                            <mxPoint x="431" y="170"/>
                        </Array>
                    </mxGeometry>
                </mxCell>
                <mxCell id="51" value="&lt;font data-font-src=&quot;https://fonts.googleapis.com/css?family=Linux+Libertine&quot; face=&quot;Linux Libertine&quot; style=&quot;font-size: 12px;&quot;&gt;Edge / Vertex Read&lt;/font&gt;" style="rounded=1;whiteSpace=wrap;html=1;" parent="1" vertex="1">
                    <mxGeometry x="386.35999999999996" y="113" width="141.38" height="22.72" as="geometry"/>
                </mxCell>
                <mxCell id="397" style="edgeStyle=orthogonalEdgeStyle;shape=flexArrow;html=1;fontSize=12;fontColor=#000000;fillColor=default;endWidth=11.121495327102805;endSize=4.045794392523365;" parent="1" edge="1">
                    <mxGeometry relative="1" as="geometry">
                        <mxPoint x="297" y="167" as="sourcePoint"/>
                        <mxPoint x="233" y="194" as="targetPoint"/>
                    </mxGeometry>
                </mxCell>
                <mxCell id="52" value="&lt;font data-font-src=&quot;https://fonts.googleapis.com/css?family=Linux+Libertine&quot; face=&quot;Linux Libertine&quot; style=&quot;font-size: 12px;&quot;&gt;Edge Cache Fifo&lt;/font&gt;" style="rounded=1;whiteSpace=wrap;html=1;" parent="1" vertex="1">
                    <mxGeometry x="300.43" y="142.53" width="73" height="59" as="geometry"/>
                </mxCell>
                <mxCell id="53" value="&lt;font data-font-src=&quot;https://fonts.googleapis.com/css?family=Linux+Libertine&quot; face=&quot;Linux Libertine&quot; style=&quot;font-size: 12px;&quot;&gt;PE Edge Demuxer&lt;/font&gt;" style="rounded=1;whiteSpace=wrap;html=1;" parent="1" vertex="1">
                    <mxGeometry x="178" y="196.95" width="109.69" height="25.05" as="geometry"/>
                </mxCell>
                <mxCell id="71" value="&lt;font data-font-src=&quot;https://fonts.googleapis.com/css?family=Linux+Libertine&quot; face=&quot;Linux Libertine&quot;&gt;CtrlReg&lt;/font&gt;" style="rounded=1;whiteSpace=wrap;html=1;fillColor=#eeeeee;strokeColor=#36393d;" parent="1" vertex="1">
                    <mxGeometry x="972.61" y="116.63" width="59.75" height="23.14" as="geometry"/>
                </mxCell>
                <mxCell id="73" value="" style="rounded=1;whiteSpace=wrap;html=1;fillColor=#eeeeee;strokeColor=#36393d;" parent="1" vertex="1">
                    <mxGeometry x="666.5" y="113" width="196.5" height="34" as="geometry"/>
                </mxCell>
                <mxCell id="74" value="" style="endArrow=blockThin;startArrow=blockThin;html=1;rounded=1;strokeWidth=1;fillColor=#FFFFFF;strokeColor=default;curved=0;startFill=1;endFill=1;shape=flexArrow;endWidth=12.478632478632479;endSize=4.4854700854700855;startWidth=12.478632478632479;startSize=4.4854700854700855;" parent="1" edge="1">
                    <mxGeometry width="50" height="50" relative="1" as="geometry">
                        <mxPoint x="876.0061904761905" y="129.84999999999997" as="sourcePoint"/>
                        <mxPoint x="961.01" y="129.85000000000002" as="targetPoint"/>
                    </mxGeometry>
                </mxCell>
                <mxCell id="76" value="&lt;font data-font-src=&quot;https://fonts.googleapis.com/css?family=Linux+Libertine&quot; face=&quot;Linux Libertine&quot;&gt;AXI&lt;/font&gt;" style="text;html=1;strokeColor=none;fillColor=none;align=center;verticalAlign=middle;whiteSpace=wrap;rounded=0;fontSize=12;" parent="1" vertex="1">
                    <mxGeometry x="490.94999999999993" y="70.62999999999997" width="22.18" height="30" as="geometry"/>
                </mxCell>
                <mxCell id="77" value="" style="rounded=1;html=1;arcSize=20;labelPosition=center;verticalLabelPosition=middle;align=center;verticalAlign=middle;whiteSpace=wrap;fillColor=#d5e8d4;strokeColor=#82b366;gradientColor=#97d077;" parent="1" vertex="1">
                    <mxGeometry x="903.51" y="19.509999999999998" width="189" height="54" as="geometry"/>
                </mxCell>
                <mxCell id="78" value="&lt;div style=&quot;text-align: center;&quot;&gt;&lt;br&gt;&lt;/div&gt;" style="text;whiteSpace=wrap;html=1;fontSize=9;" parent="1" vertex="1">
                    <mxGeometry x="986.06" y="31.509999999999998" width="44.9" height="39" as="geometry"/>
                </mxCell>
                <mxCell id="81" value="&lt;font data-font-src=&quot;https://fonts.googleapis.com/css?family=Linux+Libertine&quot; face=&quot;Linux Libertine&quot;&gt;AXI Lite&lt;/font&gt;" style="text;html=1;strokeColor=none;fillColor=none;align=center;verticalAlign=middle;whiteSpace=wrap;rounded=0;fontSize=12;" parent="1" vertex="1">
                    <mxGeometry x="926.01" y="73.50999999999999" width="70.1" height="30" as="geometry"/>
                </mxCell>
                <mxCell id="95" value="&lt;span style=&quot;color: rgb(51, 51, 51); font-size: 12px; font-style: normal; font-variant-ligatures: normal; font-variant-caps: normal; font-weight: 400; letter-spacing: normal; orphans: 2; text-align: center; text-indent: 0px; text-transform: none; widows: 2; word-spacing: 0px; -webkit-text-stroke-width: 0px; text-decoration-thickness: initial; text-decoration-style: initial; text-decoration-color: initial; float: none; display: inline !important;&quot;&gt;&lt;font data-font-src=&quot;https://fonts.googleapis.com/css?family=Linux+Libertine&quot; face=&quot;Linux Libertine&quot;&gt;8 Accu Adders&lt;/font&gt;&lt;/span&gt;" style="text;whiteSpace=wrap;html=1;" parent="1" vertex="1">
                    <mxGeometry x="507.7" y="342.33000000000004" width="74.6" height="36" as="geometry"/>
                </mxCell>
                <mxCell id="119" value="&lt;span style=&quot;color: rgb(51, 51, 51); font-style: normal; font-variant-ligatures: normal; font-variant-caps: normal; font-weight: 400; letter-spacing: normal; orphans: 2; text-align: center; text-indent: 0px; text-transform: none; widows: 2; word-spacing: 0px; -webkit-text-stroke-width: 0px; text-decoration-thickness: initial; text-decoration-style: initial; text-decoration-color: initial; float: none; display: inline !important;&quot;&gt;&lt;font style=&quot;font-size: 14px;&quot; data-font-src=&quot;https://fonts.googleapis.com/css?family=Linux+Libertine&quot; face=&quot;Linux Libertine&quot;&gt;Accumulate&lt;/font&gt;&lt;/span&gt;" style="text;whiteSpace=wrap;html=1;" parent="1" vertex="1">
                    <mxGeometry x="421.77" y="615.0899999999999" width="67.23" height="36" as="geometry"/>
                </mxCell>
                <mxCell id="120" value="&lt;span style=&quot;color: rgb(51, 51, 51); font-style: normal; font-variant-ligatures: normal; font-variant-caps: normal; font-weight: 400; letter-spacing: normal; orphans: 2; text-align: center; text-indent: 0px; text-transform: none; widows: 2; word-spacing: 0px; -webkit-text-stroke-width: 0px; text-decoration-thickness: initial; text-decoration-style: initial; text-decoration-color: initial; float: none; display: inline !important;&quot;&gt;&lt;font style=&quot;font-size: 14px;&quot; data-font-src=&quot;https://fonts.googleapis.com/css?family=Linux+Libertine&quot; face=&quot;Linux Libertine&quot;&gt;Read&lt;/font&gt;&lt;/span&gt;" style="text;whiteSpace=wrap;html=1;" parent="1" vertex="1">
                    <mxGeometry x="235.18" y="615.09" width="62.63" height="36" as="geometry"/>
                </mxCell>
                <mxCell id="121" value="&lt;span style=&quot;color: rgb(51, 51, 51); font-style: normal; font-variant-ligatures: normal; font-variant-caps: normal; font-weight: 400; letter-spacing: normal; orphans: 2; text-align: center; text-indent: 0px; text-transform: none; widows: 2; word-spacing: 0px; -webkit-text-stroke-width: 0px; text-decoration-thickness: initial; text-decoration-style: initial; text-decoration-color: initial; float: none; display: inline !important;&quot;&gt;&lt;font style=&quot;font-size: 14px;&quot; data-font-src=&quot;https://fonts.googleapis.com/css?family=Linux+Libertine&quot; face=&quot;Linux Libertine&quot;&gt;Write Back&lt;/font&gt;&lt;/span&gt;" style="text;whiteSpace=wrap;html=1;" parent="1" vertex="1">
                    <mxGeometry x="606.33" y="615.0899999999999" width="67.23" height="36" as="geometry"/>
                </mxCell>
                <mxCell id="122" value="&lt;div style=&quot;text-align: center;&quot;&gt;&lt;span style=&quot;background-color: initial;&quot;&gt;&lt;font style=&quot;font-size: 15px;&quot; face=&quot;Linux Libertine&quot; color=&quot;#333333&quot;&gt;SpMV&lt;/font&gt;&lt;/span&gt;&lt;/div&gt;" style="text;whiteSpace=wrap;html=1;" parent="1" vertex="1">
                    <mxGeometry x="445.53000000000003" y="657.9999999999999" width="67.23" height="36" as="geometry"/>
                </mxCell>
                <mxCell id="123" value="&lt;div style=&quot;text-align: center;&quot;&gt;&lt;font style=&quot;font-size: 15px;&quot; face=&quot;Linux Libertine&quot; color=&quot;#333333&quot;&gt;TE&lt;/font&gt;&lt;/div&gt;" style="text;whiteSpace=wrap;html=1;" parent="1" vertex="1">
                    <mxGeometry x="967.87" y="661.0899999999999" width="67.23" height="36" as="geometry"/>
                </mxCell>
                <mxCell id="124" value="" style="rounded=1;whiteSpace=wrap;html=1;arcSize=6;fillColor=#FFFFCC;" parent="1" vertex="1">
                    <mxGeometry x="510" y="366" width="70" height="214" as="geometry"/>
                </mxCell>
                <mxCell id="P1_Tf1mKQQPxvqgQwp_o-136" value="" style="verticalLabelPosition=bottom;shadow=0;dashed=0;align=center;html=1;verticalAlign=top;shape=mxgraph.electrical.abstract.summation_point;strokeWidth=1;fontColor=#FF0000;" parent="1" vertex="1">
                    <mxGeometry x="540.1600000000001" y="392.4600000000001" width="15" height="15" as="geometry"/>
                </mxCell>
                <mxCell id="237" style="edgeStyle=orthogonalEdgeStyle;html=1;entryX=0.5;entryY=0;entryDx=0;entryDy=0;strokeColor=default;strokeWidth=1;fontFamily=Linux Libertine;fontSource=https%3A%2F%2Ffonts.googleapis.com%2Fcss%3Ffamily%3DLinux%2BLibertine;fontSize=13;fontColor=#000000;startArrow=none;startFill=0;endArrow=none;endFill=0;fillColor=#E6E6E6;" parent="1" source="109" target="235" edge="1">
                    <mxGeometry relative="1" as="geometry"/>
                </mxCell>
                <mxCell id="109" value="" style="verticalLabelPosition=bottom;shadow=0;dashed=0;align=center;html=1;verticalAlign=top;shape=mxgraph.electrical.abstract.summation_point;strokeWidth=1;fontColor=#FF0000;" parent="1" vertex="1">
                    <mxGeometry x="540.1600000000001" y="522.01" width="15" height="15" as="geometry"/>
                </mxCell>
                <mxCell id="111" value="" style="verticalLabelPosition=bottom;shadow=0;dashed=0;align=center;html=1;verticalAlign=top;shape=mxgraph.electrical.abstract.summation_point;strokeWidth=1;fontColor=#FF0000;" parent="1" vertex="1">
                    <mxGeometry x="540.1600000000001" y="413.8200000000001" width="15" height="15" as="geometry"/>
                </mxCell>
                <mxCell id="113" value="" style="verticalLabelPosition=bottom;shadow=0;dashed=0;align=center;html=1;verticalAlign=top;shape=mxgraph.electrical.abstract.summation_point;strokeWidth=1;fontColor=#FF0000;" parent="1" vertex="1">
                    <mxGeometry x="540.1600000000001" y="457.0900000000001" width="15" height="15" as="geometry"/>
                </mxCell>
                <mxCell id="115" value="" style="verticalLabelPosition=bottom;shadow=0;dashed=0;align=center;html=1;verticalAlign=top;shape=mxgraph.electrical.abstract.summation_point;strokeWidth=1;fontColor=#FF0000;" parent="1" vertex="1">
                    <mxGeometry x="540.38" y="477.5900000000001" width="15" height="15" as="geometry"/>
                </mxCell>
                <mxCell id="117" value="" style="verticalLabelPosition=bottom;shadow=0;dashed=0;align=center;html=1;verticalAlign=top;shape=mxgraph.electrical.abstract.summation_point;strokeWidth=1;fontColor=#FF0000;" parent="1" vertex="1">
                    <mxGeometry x="540.1600000000001" y="499.5700000000001" width="15" height="15" as="geometry"/>
                </mxCell>
                <mxCell id="97" value="" style="verticalLabelPosition=bottom;shadow=0;dashed=0;align=center;html=1;verticalAlign=top;shape=mxgraph.electrical.abstract.summation_point;strokeWidth=1;fontColor=#FF0000;" parent="1" vertex="1">
                    <mxGeometry x="540.1600000000001" y="370.50000000000006" width="15" height="15" as="geometry"/>
                </mxCell>
                <mxCell id="107" value="" style="verticalLabelPosition=bottom;shadow=0;dashed=0;align=center;html=1;verticalAlign=top;shape=mxgraph.electrical.abstract.summation_point;strokeWidth=1;fontColor=#FF0000;" parent="1" vertex="1">
                    <mxGeometry x="540.16" y="435.8500000000001" width="15" height="15" as="geometry"/>
                </mxCell>
                <mxCell id="125" value="&lt;span style=&quot;color: rgb(51, 51, 51); font-family: &amp;quot;Linux Libertine&amp;quot;; text-align: center;&quot;&gt;8 Multipliers&lt;/span&gt;" style="text;whiteSpace=wrap;html=1;" parent="1" vertex="1">
                    <mxGeometry x="359.71999999999997" y="342.33" width="67.42" height="36" as="geometry"/>
                </mxCell>
                <mxCell id="128" value="&lt;i&gt;&lt;font data-font-src=&quot;https://fonts.googleapis.com/css?family=Linux+Libertine&quot; face=&quot;Linux Libertine&quot;&gt;mm&lt;/font&gt;&lt;/i&gt;" style="text;html=1;strokeColor=none;fillColor=none;align=center;verticalAlign=middle;whiteSpace=wrap;rounded=0;fontSize=12;" parent="1" vertex="1">
                    <mxGeometry x="510.7899999999999" y="474.1399999999998" width="22.47" height="19.65" as="geometry"/>
                </mxCell>
                <mxCell id="129" value="&lt;i style=&quot;border-color: var(--border-color);&quot;&gt;&lt;font style=&quot;border-color: var(--border-color);&quot; data-font-src=&quot;https://fonts.googleapis.com/css?family=Linux+Libertine&quot; face=&quot;Linux Libertine&quot;&gt;spmv&lt;sub style=&quot;border-color: var(--border-color);&quot;&gt;old&lt;/sub&gt;&lt;/font&gt;&lt;/i&gt;" style="text;html=1;strokeColor=none;fillColor=none;align=center;verticalAlign=middle;whiteSpace=wrap;rounded=0;fontSize=12;" parent="1" vertex="1">
                    <mxGeometry x="510" y="562" width="37.52" height="12.44" as="geometry"/>
                </mxCell>
                <mxCell id="132" value="" style="shape=singleArrow;direction=south;whiteSpace=wrap;html=1;labelBackgroundColor=none;arrowWidth=0.5494699646643076;arrowSize=0.29337312204157223;rotation=-90;" parent="1" vertex="1">
                    <mxGeometry x="48.46" y="384.37" width="50.37" height="46.08" as="geometry"/>
                </mxCell>
                <mxCell id="131" value="&lt;font data-font-src=&quot;https://fonts.googleapis.com/css?family=Linux+Libertine&quot; face=&quot;Linux Libertine&quot; style=&quot;font-size: 12px;&quot;&gt;Edge e&lt;/font&gt;" style="text;html=1;strokeColor=none;fillColor=none;align=center;verticalAlign=middle;whiteSpace=wrap;rounded=0;fontSize=4;" parent="1" vertex="1">
                    <mxGeometry x="49.250000000000064" y="392.7100000000002" width="41.44" height="29.07" as="geometry"/>
                </mxCell>
                <mxCell id="133" value="" style="shape=singleArrow;direction=south;whiteSpace=wrap;html=1;labelBackgroundColor=none;arrowWidth=0.5494699646643076;arrowSize=0.29337312204157223;rotation=-90;" parent="1" vertex="1">
                    <mxGeometry x="48.46" y="522.83" width="50.37" height="45.4" as="geometry"/>
                </mxCell>
                <mxCell id="134" value="&lt;font data-font-src=&quot;https://fonts.googleapis.com/css?family=Linux+Libertine&quot; face=&quot;Linux Libertine&quot; style=&quot;font-size: 12px;&quot;&gt;Vertex v&lt;/font&gt;" style="text;html=1;strokeColor=none;fillColor=none;align=center;verticalAlign=middle;whiteSpace=wrap;rounded=0;fontSize=4;" parent="1" vertex="1">
                    <mxGeometry x="50.96" y="530.99" width="45.37" height="29.07" as="geometry"/>
                </mxCell>
                <mxCell id="137" value="&lt;div style=&quot;text-align: center;&quot;&gt;&lt;span style=&quot;background-color: initial;&quot;&gt;&lt;font style=&quot;font-size: 14px;&quot; face=&quot;Linux Libertine&quot; color=&quot;#333333&quot;&gt;Ping-pong Operation&lt;/font&gt;&lt;/span&gt;&lt;/div&gt;" style="text;whiteSpace=wrap;html=1;" parent="1" vertex="1">
                    <mxGeometry x="717.18" y="615.09" width="129.7" height="36" as="geometry"/>
                </mxCell>
                <mxCell id="138" value="&lt;div style=&quot;text-align: center;&quot;&gt;&lt;span style=&quot;background-color: initial;&quot;&gt;&lt;font style=&quot;font-size: 14px;&quot; face=&quot;Linux Libertine&quot; color=&quot;#333333&quot;&gt;Time Evoluation&lt;/font&gt;&lt;/span&gt;&lt;/div&gt;" style="text;whiteSpace=wrap;html=1;" parent="1" vertex="1">
                    <mxGeometry x="910.0000000000001" y="615.09" width="110" height="36" as="geometry"/>
                </mxCell>
                <mxCell id="139" value="&lt;div style=&quot;text-align: center;&quot;&gt;&lt;span style=&quot;background-color: initial;&quot;&gt;&lt;font style=&quot;font-size: 14px;&quot; face=&quot;Linux Libertine&quot; color=&quot;#333333&quot;&gt;Clip&lt;/font&gt;&lt;/span&gt;&lt;/div&gt;" style="text;whiteSpace=wrap;html=1;" parent="1" vertex="1">
                    <mxGeometry x="1100.0000000000002" y="615.09" width="49" height="36" as="geometry"/>
                </mxCell>
                <mxCell id="141" value="" style="endArrow=none;html=1;fillColor=#dae8fc;strokeColor=#6c8ebf;dashed=1;" parent="1" edge="1">
                    <mxGeometry width="50" height="50" relative="1" as="geometry">
                        <mxPoint x="327.85" y="647.09" as="sourcePoint"/>
                        <mxPoint x="327.85" y="605.09" as="targetPoint"/>
                    </mxGeometry>
                </mxCell>
                <mxCell id="145" value="" style="endArrow=none;html=1;strokeColor=#004C99;" parent="1" edge="1">
                    <mxGeometry width="50" height="50" relative="1" as="geometry">
                        <mxPoint x="186" y="653" as="sourcePoint"/>
                        <mxPoint x="1180" y="653" as="targetPoint"/>
                    </mxGeometry>
                </mxCell>
                <mxCell id="146" value="" style="endArrow=none;html=1;fillColor=#dae8fc;strokeColor=#6c8ebf;dashed=1;" parent="1" edge="1">
                    <mxGeometry width="50" height="50" relative="1" as="geometry">
                        <mxPoint x="586.48" y="649" as="sourcePoint"/>
                        <mxPoint x="586.48" y="607" as="targetPoint"/>
                    </mxGeometry>
                </mxCell>
                <mxCell id="147" value="" style="endArrow=none;html=1;fillColor=#dae8fc;strokeColor=#6c8ebf;dashed=1;" parent="1" edge="1">
                    <mxGeometry width="50" height="50" relative="1" as="geometry">
                        <mxPoint x="857.6699999999998" y="649.09" as="sourcePoint"/>
                        <mxPoint x="857.6699999999998" y="607.09" as="targetPoint"/>
                    </mxGeometry>
                </mxCell>
                <mxCell id="148" value="" style="endArrow=none;html=1;fillColor=#dae8fc;strokeColor=#6c8ebf;dashed=1;" parent="1" edge="1">
                    <mxGeometry width="50" height="50" relative="1" as="geometry">
                        <mxPoint x="690.9999999999999" y="649.09" as="sourcePoint"/>
                        <mxPoint x="690.9999999999999" y="607.09" as="targetPoint"/>
                    </mxGeometry>
                </mxCell>
                <mxCell id="149" value="" style="endArrow=none;html=1;fillColor=#dae8fc;strokeColor=#6c8ebf;dashed=1;" parent="1" edge="1">
                    <mxGeometry width="50" height="50" relative="1" as="geometry">
                        <mxPoint x="1053.1" y="648.09" as="sourcePoint"/>
                        <mxPoint x="1053.1" y="606.09" as="targetPoint"/>
                    </mxGeometry>
                </mxCell>
                <mxCell id="150" value="" style="endArrow=none;html=1;fillColor=#dae8fc;strokeColor=#6c8ebf;dashed=1;" parent="1" edge="1">
                    <mxGeometry width="50" height="50" relative="1" as="geometry">
                        <mxPoint x="784" y="691.09" as="sourcePoint"/>
                        <mxPoint x="784" y="661.09" as="targetPoint"/>
                    </mxGeometry>
                </mxCell>
                <mxCell id="151" value="&lt;span style=&quot;color: rgb(51, 51, 51); font-style: normal; font-variant-ligatures: normal; font-variant-caps: normal; letter-spacing: normal; orphans: 2; text-align: center; text-indent: 0px; text-transform: none; widows: 2; word-spacing: 0px; -webkit-text-stroke-width: 0px; text-decoration-thickness: initial; text-decoration-style: initial; text-decoration-color: initial; float: none; display: inline !important;&quot;&gt;&lt;font size=&quot;1&quot; style=&quot;&quot; data-font-src=&quot;https://fonts.googleapis.com/css?family=Linux+Libertine&quot; face=&quot;Linux Libertine&quot;&gt;&lt;b style=&quot;font-size: 15px;&quot;&gt;Algorithm stage:&lt;/b&gt;&lt;/font&gt;&lt;/span&gt;" style="text;whiteSpace=wrap;html=1;" parent="1" vertex="1">
                    <mxGeometry x="50" y="658" width="127.12" height="36" as="geometry"/>
                </mxCell>
                <mxCell id="152" value="&lt;span style=&quot;color: rgb(51, 51, 51); font-style: normal; font-variant-ligatures: normal; font-variant-caps: normal; letter-spacing: normal; orphans: 2; text-align: center; text-indent: 0px; text-transform: none; widows: 2; word-spacing: 0px; -webkit-text-stroke-width: 0px; text-decoration-thickness: initial; text-decoration-style: initial; text-decoration-color: initial; float: none; display: inline !important;&quot;&gt;&lt;font size=&quot;1&quot; style=&quot;&quot; data-font-src=&quot;https://fonts.googleapis.com/css?family=Linux+Libertine&quot; face=&quot;Linux Libertine&quot;&gt;&lt;b style=&quot;font-size: 15px;&quot;&gt;Pipeline stage:&lt;/b&gt;&lt;/font&gt;&lt;/span&gt;" style="text;whiteSpace=wrap;html=1;" parent="1" vertex="1">
                    <mxGeometry x="50" y="617" width="162" height="36" as="geometry"/>
                </mxCell>
                <mxCell id="153" value="" style="endArrow=none;html=1;fillColor=#dae8fc;strokeColor=#6c8ebf;dashed=1;" parent="1" edge="1">
                    <mxGeometry width="50" height="50" relative="1" as="geometry">
                        <mxPoint x="186.37000000000003" y="696.09" as="sourcePoint"/>
                        <mxPoint x="186.37000000000003" y="654.09" as="targetPoint"/>
                    </mxGeometry>
                </mxCell>
                <mxCell id="154" value="" style="endArrow=none;html=1;fillColor=#dae8fc;strokeColor=#6c8ebf;dashed=1;" parent="1" edge="1">
                    <mxGeometry width="50" height="50" relative="1" as="geometry">
                        <mxPoint x="186.37000000000003" y="649.09" as="sourcePoint"/>
                        <mxPoint x="186.37000000000003" y="607.09" as="targetPoint"/>
                    </mxGeometry>
                </mxCell>
                <mxCell id="171" value="&lt;font data-font-src=&quot;https://fonts.googleapis.com/css?family=Linux+Libertine&quot; face=&quot;Linux Libertine&quot; style=&quot;font-size: 12px;&quot;&gt;PE Vertex Demuxer&lt;/font&gt;" style="rounded=1;whiteSpace=wrap;html=1;" parent="1" vertex="1">
                    <mxGeometry x="388" y="196.95" width="139.74" height="25.05" as="geometry"/>
                </mxCell>
                <mxCell id="178" value="&lt;font style=&quot;font-size: 12px;&quot;&gt;&lt;font data-font-src=&quot;https://fonts.googleapis.com/css?family=Linux+Libertine&quot; face=&quot;Linux Libertine&quot; style=&quot;font-size: 12px;&quot;&gt;Vertex&amp;nbsp;&lt;/font&gt;&lt;span style=&quot;font-family: &amp;quot;Linux Libertine&amp;quot;;&quot;&gt;WB&lt;/span&gt;&lt;/font&gt;" style="rounded=1;whiteSpace=wrap;html=1;" parent="1" vertex="1">
                    <mxGeometry x="551.0799999999999" y="114" width="96.28" height="22.72" as="geometry"/>
                </mxCell>
                <mxCell id="370" style="edgeStyle=orthogonalEdgeStyle;rounded=0;html=1;strokeColor=#000000;strokeWidth=1;fontFamily=Linux Libertine;fontSource=https%3A%2F%2Ffonts.googleapis.com%2Fcss%3Ffamily%3DLinux%2BLibertine;fontSize=12;fontColor=#000000;startArrow=none;startFill=0;endArrow=classic;endFill=1;fillColor=#E6E6E6;" parent="1" source="183" edge="1">
                    <mxGeometry relative="1" as="geometry">
                        <mxPoint x="281" y="554" as="targetPoint"/>
                        <Array as="points">
                            <mxPoint x="651" y="541"/>
                            <mxPoint x="651" y="593"/>
                            <mxPoint x="215" y="593"/>
                            <mxPoint x="215" y="554"/>
                        </Array>
                    </mxGeometry>
                </mxCell>
                <mxCell id="183" value="" style="shape=doubleArrow;whiteSpace=wrap;html=1;labelBackgroundColor=none;fontFamily=Linux Libertine;fontSource=https%3A%2F%2Ffonts.googleapis.com%2Fcss%3Ffamily%3DLinux%2BLibertine;fontSize=16;arrowWidth=0.5767686926527971;arrowSize=0.28300741072263447;strokeColor=#999999;dashed=1;" parent="1" vertex="1">
                    <mxGeometry x="654.81" y="521.23" width="61.19" height="44.98" as="geometry"/>
                </mxCell>
                <mxCell id="184" value="&lt;font color=&quot;#999999&quot; data-font-src=&quot;https://fonts.googleapis.com/css?family=Linux+Libertine&quot; face=&quot;Linux Libertine&quot;&gt;SpMV&lt;/font&gt;" style="text;html=1;strokeColor=none;fillColor=none;align=center;verticalAlign=middle;whiteSpace=wrap;rounded=0;fontSize=12;" parent="1" vertex="1">
                    <mxGeometry x="665.0000000000001" y="528.64" width="40" height="30" as="geometry"/>
                </mxCell>
                <mxCell id="186" value="" style="shape=doubleArrow;whiteSpace=wrap;html=1;labelBackgroundColor=none;fillStyle=solid;strokeColor=#000000;fontFamily=Linux Libertine;fontSource=https%3A%2F%2Ffonts.googleapis.com%2Fcss%3Ffamily%3DLinux%2BLibertine;fontSize=16;fontColor=#999999;fillColor=#FFFFFF;gradientColor=none;rotation=-90;arrowWidth=0.5705048038983609;arrowSize=0.21014492753623354;" parent="1" vertex="1">
                    <mxGeometry x="523.76" y="77.63" width="26.02" height="20.01" as="geometry"/>
                </mxCell>
                <mxCell id="187" value="" style="shape=doubleArrow;whiteSpace=wrap;html=1;labelBackgroundColor=none;fillStyle=solid;strokeColor=#000000;fontFamily=Linux Libertine;fontSource=https%3A%2F%2Ffonts.googleapis.com%2Fcss%3Ffamily%3DLinux%2BLibertine;fontSize=16;fontColor=#999999;fillColor=#FFFFFF;gradientColor=none;rotation=-90;arrowWidth=0.5705048038983609;arrowSize=0.21014492753623354;" parent="1" vertex="1">
                    <mxGeometry x="988.4700000000001" y="80.50999999999999" width="26.02" height="20.01" as="geometry"/>
                </mxCell>
                <mxCell id="190" value="&lt;div style=&quot;text-align: center;&quot;&gt;&lt;span style=&quot;background-color: initial;&quot;&gt;&lt;font face=&quot;Linux Libertine&quot; color=&quot;#333333&quot;&gt;&lt;b&gt;........&lt;/b&gt;&lt;/font&gt;&lt;/span&gt;&lt;/div&gt;" style="text;whiteSpace=wrap;html=1;rotation=-55;" parent="1" vertex="1">
                    <mxGeometry x="999.1200000000001" y="305" width="57.88" height="23.67" as="geometry"/>
                </mxCell>
                <mxCell id="193" style="edgeStyle=orthogonalEdgeStyle;html=1;strokeColor=default;strokeWidth=1;fontFamily=Linux Libertine;fontSource=https%3A%2F%2Ffonts.googleapis.com%2Fcss%3Ffamily%3DLinux%2BLibertine;fontSize=16;fontColor=#999999;startArrow=none;fillColor=default;startFill=0;" parent="1" source="191" target="lgitm_aCLKtaHcFgOGSM-16" edge="1">
                    <mxGeometry relative="1" as="geometry"/>
                </mxCell>
                <mxCell id="191" value="&lt;span style=&quot;color: rgb(51, 51, 51); font-size: 12px; font-style: normal; font-variant-ligatures: normal; font-variant-caps: normal; font-weight: 400; letter-spacing: normal; orphans: 2; text-indent: 0px; text-transform: none; widows: 2; word-spacing: 0px; -webkit-text-stroke-width: 0px; text-decoration-thickness: initial; text-decoration-style: initial; text-decoration-color: initial; float: none; display: inline !important;&quot;&gt;&lt;font face=&quot;Linux Libertine&quot;&gt;e.dst&lt;/font&gt;&lt;br&gt;&lt;/span&gt;" style="text;whiteSpace=wrap;html=1;align=center;" parent="1" vertex="1">
                    <mxGeometry x="112.67999999999998" y="469.52000000000004" width="41" height="24.27" as="geometry"/>
                </mxCell>
                <mxCell id="196" value="&lt;span style=&quot;color: rgb(51, 51, 51); font-size: 12px; font-style: normal; font-variant-ligatures: normal; font-variant-caps: normal; font-weight: 400; letter-spacing: normal; orphans: 2; text-indent: 0px; text-transform: none; widows: 2; word-spacing: 0px; -webkit-text-stroke-width: 0px; text-decoration-thickness: initial; text-decoration-style: initial; text-decoration-color: initial; float: none; display: inline !important;&quot;&gt;&lt;font face=&quot;Linux Libertine&quot;&gt;v[e.dst]&lt;/font&gt;&lt;br&gt;&lt;/span&gt;" style="text;whiteSpace=wrap;html=1;align=center;" parent="1" vertex="1">
                    <mxGeometry x="221.11999999999998" y="504.82000000000005" width="41" height="24.27" as="geometry"/>
                </mxCell>
                <mxCell id="200" value="&lt;span style=&quot;color: rgb(51, 51, 51); font-size: 12px; font-style: normal; font-variant-ligatures: normal; font-variant-caps: normal; font-weight: 400; letter-spacing: normal; orphans: 2; text-indent: 0px; text-transform: none; widows: 2; word-spacing: 0px; -webkit-text-stroke-width: 0px; text-decoration-thickness: initial; text-decoration-style: initial; text-decoration-color: initial; float: none; display: inline !important;&quot;&gt;&lt;font face=&quot;Linux Libertine&quot;&gt;spmv&lt;sub&gt;old&lt;/sub&gt;&lt;/font&gt;&lt;br&gt;&lt;/span&gt;" style="text;whiteSpace=wrap;html=1;align=center;" parent="1" vertex="1">
                    <mxGeometry x="224.38999999999996" y="550.0100000000001" width="41" height="24.27" as="geometry"/>
                </mxCell>
                <mxCell id="201" value="" style="rounded=0;whiteSpace=wrap;html=1;fillColor=#d5e8d4;strokeColor=#000000;" parent="1" vertex="1">
                    <mxGeometry x="386.36" y="17.63" width="298.05" height="53" as="geometry"/>
                </mxCell>
                <mxCell id="75" value="&lt;font data-font-src=&quot;https://fonts.googleapis.com/css?family=Linux+Libertine&quot; face=&quot;Linux Libertine&quot; color=&quot;#330000&quot; style=&quot;font-size: 14px;&quot;&gt;MIG&lt;/font&gt;" style="rounded=1;whiteSpace=wrap;html=1;fillColor=#f5f5f5;strokeColor=#666666;gradientColor=#b3b3b3;" parent="1" vertex="1">
                    <mxGeometry x="451.07" y="44.629999999999995" width="168.62" height="21" as="geometry"/>
                </mxCell>
                <mxCell id="202" value="&lt;b style=&quot;border-color: var(--border-color); color: rgb(0, 0, 0); font-family: Helvetica; font-style: normal; font-variant-ligatures: normal; font-variant-caps: normal; letter-spacing: normal; orphans: 2; text-align: center; text-indent: 0px; text-transform: none; widows: 2; word-spacing: 0px; -webkit-text-stroke-width: 0px; text-decoration-thickness: initial; text-decoration-style: initial; text-decoration-color: initial; font-size: 14px;&quot;&gt;&lt;font style=&quot;border-color: var(--border-color);&quot; data-font-src=&quot;https://fonts.googleapis.com/css?family=Linux+Libertine&quot; face=&quot;Linux Libertine&quot;&gt;DDR&lt;/font&gt;&lt;/b&gt;" style="text;whiteSpace=wrap;html=1;fontSize=16;fontFamily=Linux Libertine;fontColor=#999999;" parent="1" vertex="1">
                    <mxGeometry x="519.840013563368" y="14.257777777777772" width="59" height="41" as="geometry"/>
                </mxCell>
                <mxCell id="203" value="&lt;b style=&quot;border-color: var(--border-color); color: rgb(0, 0, 0); font-family: Helvetica; font-size: 14px; font-style: normal; font-variant-ligatures: normal; font-variant-caps: normal; letter-spacing: normal; orphans: 2; text-align: center; text-indent: 0px; text-transform: none; widows: 2; word-spacing: 0px; -webkit-text-stroke-width: 0px; text-decoration-thickness: initial; text-decoration-style: initial; text-decoration-color: initial;&quot;&gt;&lt;font style=&quot;border-color: var(--border-color);&quot; data-font-src=&quot;https://fonts.googleapis.com/css?family=Linux+Libertine&quot; face=&quot;Linux Libertine&quot;&gt;SoC&lt;/font&gt;&lt;/b&gt;" style="text;whiteSpace=wrap;html=1;fontSize=16;fontFamily=Linux Libertine;fontColor=#999999;" parent="1" vertex="1">
                    <mxGeometry x="986.0644580078125" y="14.511111111111084" width="53" height="41" as="geometry"/>
                </mxCell>
                <mxCell id="204" value="&lt;b style=&quot;border-color: var(--border-color); color: rgb(0, 0, 0); font-family: Helvetica; font-size: 12px; font-style: normal; font-variant-ligatures: normal; font-variant-caps: normal; letter-spacing: normal; orphans: 2; text-align: center; text-indent: 0px; text-transform: none; widows: 2; word-spacing: 0px; -webkit-text-stroke-width: 0px; text-decoration-thickness: initial; text-decoration-style: initial; text-decoration-color: initial;&quot;&gt;&lt;font style=&quot;border-color: var(--border-color);&quot; data-font-src=&quot;https://fonts.googleapis.com/css?family=Linux+Libertine&quot; face=&quot;Linux Libertine&quot;&gt;Controller&lt;/font&gt;&lt;/b&gt;" style="text;whiteSpace=wrap;html=1;fontSize=16;fontFamily=Linux Libertine;fontColor=#999999;" parent="1" vertex="1">
                    <mxGeometry x="735.0132790798611" y="113.0011077202691" width="147" height="41" as="geometry"/>
                </mxCell>
                <mxCell id="205" value="" style="endArrow=none;html=1;fillColor=#dae8fc;strokeColor=#6c8ebf;dashed=1;" parent="1" edge="1">
                    <mxGeometry width="50" height="50" relative="1" as="geometry">
                        <mxPoint x="1180" y="647.0900000000001" as="sourcePoint"/>
                        <mxPoint x="1180" y="605.09" as="targetPoint"/>
                    </mxGeometry>
                </mxCell>
                <mxCell id="206" value="" style="endArrow=none;html=1;fillColor=#dae8fc;strokeColor=#6c8ebf;dashed=1;" parent="1" edge="1">
                    <mxGeometry width="50" height="50" relative="1" as="geometry">
                        <mxPoint x="1180" y="697.09" as="sourcePoint"/>
                        <mxPoint x="1180" y="655.0900000000001" as="targetPoint"/>
                    </mxGeometry>
                </mxCell>
                <mxCell id="207" value="" style="shape=doubleArrow;whiteSpace=wrap;html=1;labelBackgroundColor=none;fillStyle=solid;strokeColor=#000000;fontFamily=Linux Libertine;fontSource=https%3A%2F%2Ffonts.googleapis.com%2Fcss%3Ffamily%3DLinux%2BLibertine;fontSize=16;fontColor=#999999;fillColor=#FFFFFF;gradientColor=none;rotation=0;arrowWidth=0.5705048038983609;arrowSize=0.21014492753623354;" parent="1" vertex="1">
                    <mxGeometry x="136.89" y="6" width="60.11" height="20.01" as="geometry"/>
                </mxCell>
                <mxCell id="209" value="&lt;span style=&quot;color: rgb(51, 51, 51); font-style: normal; font-variant-ligatures: normal; font-variant-caps: normal; letter-spacing: normal; orphans: 2; text-align: center; text-indent: 0px; text-transform: none; widows: 2; word-spacing: 0px; -webkit-text-stroke-width: 0px; text-decoration-thickness: initial; text-decoration-style: initial; text-decoration-color: initial; float: none; display: inline !important;&quot;&gt;&lt;font style=&quot;font-size: 14px;&quot; data-font-src=&quot;https://fonts.googleapis.com/css?family=Linux+Libertine&quot; face=&quot;Linux Libertine&quot;&gt;Data flow :&lt;/font&gt;&lt;/span&gt;" style="text;whiteSpace=wrap;html=1;" parent="1" vertex="1">
                    <mxGeometry x="46.89" width="77.11" height="36" as="geometry"/>
                </mxCell>
                <mxCell id="213" value="&lt;font style=&quot;font-size: 13px;&quot; color=&quot;#000000&quot;&gt;vertex&lt;/font&gt;" style="rounded=0;whiteSpace=wrap;html=1;labelBackgroundColor=none;fillStyle=solid;strokeColor=default;fontFamily=Linux Libertine;fontSource=https%3A%2F%2Ffonts.googleapis.com%2Fcss%3Ffamily%3DLinux%2BLibertine;fontSize=16;fontColor=#999999;fillColor=none;gradientColor=none;rotation=-90;" parent="1" vertex="1">
                    <mxGeometry x="865.29" y="396.64" width="52.72" height="17.45" as="geometry"/>
                </mxCell>
                <mxCell id="214" value="" style="shape=table;html=1;whiteSpace=wrap;startSize=0;container=1;collapsible=0;childLayout=tableLayout;labelBackgroundColor=#FFFFCC;fillColor=#FFFFFF;" parent="1" vertex="1">
                    <mxGeometry x="438.84000000000003" y="537.01" width="58.57" height="42.77" as="geometry"/>
                </mxCell>
                <mxCell id="215" value="" style="shape=tableRow;horizontal=0;startSize=0;swimlaneHead=0;swimlaneBody=0;top=0;left=0;bottom=0;right=0;collapsible=0;dropTarget=0;fillColor=none;points=[[0,0.5],[1,0.5]];portConstraint=eastwest;labelBackgroundColor=#FFFFCC;" parent="214" vertex="1">
                    <mxGeometry width="58.57" height="23" as="geometry"/>
                </mxCell>
                <mxCell id="216" value="&lt;font data-font-src=&quot;https://fonts.googleapis.com/css?family=Linux+Libertine&quot; face=&quot;Linux Libertine&quot; style=&quot;font-size: 9px;&quot;&gt;Interhaz_table&lt;/font&gt;" style="shape=partialRectangle;html=1;whiteSpace=wrap;connectable=0;fillColor=none;top=0;left=0;bottom=0;right=0;overflow=hidden;labelBackgroundColor=#FFFFFF;" parent="215" vertex="1">
                    <mxGeometry width="59" height="23" as="geometry">
                        <mxRectangle width="59" height="23" as="alternateBounds"/>
                    </mxGeometry>
                </mxCell>
                <mxCell id="217" value="" style="shape=tableRow;horizontal=0;startSize=0;swimlaneHead=0;swimlaneBody=0;top=0;left=0;bottom=0;right=0;collapsible=0;dropTarget=0;fillColor=none;points=[[0,0.5],[1,0.5]];portConstraint=eastwest;labelBackgroundColor=#FFFFCC;" parent="214" vertex="1">
                    <mxGeometry y="23" width="58.57" height="10" as="geometry"/>
                </mxCell>
                <mxCell id="218" value="" style="shape=partialRectangle;html=1;whiteSpace=wrap;connectable=0;fillColor=none;top=0;left=0;bottom=0;right=0;overflow=hidden;labelBackgroundColor=#FFFFCC;" parent="217" vertex="1">
                    <mxGeometry width="59" height="10" as="geometry">
                        <mxRectangle width="59" height="10" as="alternateBounds"/>
                    </mxGeometry>
                </mxCell>
                <mxCell id="219" value="" style="shape=tableRow;horizontal=0;startSize=0;swimlaneHead=0;swimlaneBody=0;top=0;left=0;bottom=0;right=0;collapsible=0;dropTarget=0;fillColor=none;points=[[0,0.5],[1,0.5]];portConstraint=eastwest;labelBackgroundColor=#FFFFCC;" parent="214" vertex="1">
                    <mxGeometry y="33" width="58.57" height="10" as="geometry"/>
                </mxCell>
                <mxCell id="220" value="" style="shape=partialRectangle;html=1;whiteSpace=wrap;connectable=0;fillColor=none;top=0;left=0;bottom=0;right=0;overflow=hidden;labelBackgroundColor=#FFFFCC;" parent="219" vertex="1">
                    <mxGeometry width="59" height="10" as="geometry">
                        <mxRectangle width="59" height="10" as="alternateBounds"/>
                    </mxGeometry>
                </mxCell>
                <mxCell id="240" style="html=1;entryX=0.5;entryY=0;entryDx=0;entryDy=0;strokeColor=default;strokeWidth=1;fontFamily=Linux Libertine;fontSource=https%3A%2F%2Ffonts.googleapis.com%2Fcss%3Ffamily%3DLinux%2BLibertine;fontSize=13;fontColor=#000000;startArrow=none;startFill=0;endArrow=none;endFill=0;fillColor=#E6E6E6;" parent="1" source="235" target="238" edge="1">
                    <mxGeometry relative="1" as="geometry"/>
                </mxCell>
                <mxCell id="241" style="edgeStyle=none;html=1;entryX=0.5;entryY=0;entryDx=0;entryDy=0;strokeColor=default;strokeWidth=1;fontFamily=Linux Libertine;fontSource=https%3A%2F%2Ffonts.googleapis.com%2Fcss%3Ffamily%3DLinux%2BLibertine;fontSize=13;fontColor=#000000;startArrow=none;startFill=0;endArrow=none;endFill=0;fillColor=#E6E6E6;" parent="1" source="235" target="129" edge="1">
                    <mxGeometry relative="1" as="geometry"/>
                </mxCell>
                <mxCell id="235" value="" style="shape=trapezoid;perimeter=trapezoidPerimeter;whiteSpace=wrap;html=1;fixedSize=1;labelBackgroundColor=none;fillStyle=solid;fontFamily=Linux Libertine;fontSource=https%3A%2F%2Ffonts.googleapis.com%2Fcss%3Ffamily%3DLinux%2BLibertine;fontSize=13;size=9.193297826943194;" parent="1" vertex="1">
                    <mxGeometry x="528.95" y="543.3199999999999" width="36" height="11.82" as="geometry"/>
                </mxCell>
                <mxCell id="236" style="edgeStyle=orthogonalEdgeStyle;html=1;entryX=0;entryY=0.5;entryDx=0;entryDy=0;strokeColor=default;strokeWidth=1;fontFamily=Linux Libertine;fontSource=https%3A%2F%2Ffonts.googleapis.com%2Fcss%3Ffamily%3DLinux%2BLibertine;fontSize=13;fontColor=#000000;startArrow=none;startFill=0;endArrow=none;endFill=0;fillColor=#E6E6E6;rounded=0;" parent="1" source="217" target="235" edge="1">
                    <mxGeometry relative="1" as="geometry">
                        <Array as="points">
                            <mxPoint x="505" y="565"/>
                            <mxPoint x="505" y="548"/>
                            <mxPoint x="533" y="548"/>
                        </Array>
                    </mxGeometry>
                </mxCell>
                <mxCell id="238" value="&lt;i style=&quot;border-color: var(--border-color);&quot;&gt;&lt;font style=&quot;border-color: var(--border-color);&quot; data-font-src=&quot;https://fonts.googleapis.com/css?family=Linux+Libertine&quot; face=&quot;Linux Libertine&quot;&gt;r&lt;sub style=&quot;border-color: var(--border-color);&quot;&gt;wb&lt;/sub&gt;&lt;/font&gt;&lt;/i&gt;" style="text;html=1;strokeColor=none;fillColor=none;align=center;verticalAlign=middle;whiteSpace=wrap;rounded=0;fontSize=12;" parent="1" vertex="1">
                    <mxGeometry x="551.08" y="562" width="26.92" height="14.96" as="geometry"/>
                </mxCell>
                <mxCell id="242" value="" style="shape=table;html=1;whiteSpace=wrap;startSize=0;container=1;collapsible=0;childLayout=tableLayout;labelBackgroundColor=#FFFFCC;fillColor=#FFFFFF;" parent="1" vertex="1">
                    <mxGeometry x="364.67" y="320.93" width="213.33" height="25.75" as="geometry"/>
                </mxCell>
                <mxCell id="243" value="" style="shape=tableRow;horizontal=0;startSize=0;swimlaneHead=0;swimlaneBody=0;top=0;left=0;bottom=0;right=0;collapsible=0;dropTarget=0;fillColor=none;points=[[0,0.5],[1,0.5]];portConstraint=eastwest;labelBackgroundColor=#FFFFCC;" parent="242" vertex="1">
                    <mxGeometry width="213.33" height="18" as="geometry"/>
                </mxCell>
                <mxCell id="269" value="&lt;font data-font-src=&quot;https://fonts.googleapis.com/css?family=Linux+Libertine&quot; face=&quot;Linux Libertine&quot;&gt;interhaz_table&lt;/font&gt;" style="shape=partialRectangle;html=1;whiteSpace=wrap;connectable=0;fillColor=none;top=0;left=0;bottom=0;right=0;overflow=hidden;labelBackgroundColor=#FFFFFF;rowspan=1;colspan=3;" parent="243" vertex="1">
                    <mxGeometry width="213" height="18" as="geometry">
                        <mxRectangle width="71" height="18" as="alternateBounds"/>
                    </mxGeometry>
                </mxCell>
                <mxCell id="244" value="&lt;font style=&quot;font-size: 9px;&quot;&gt;Intrahaz_table&lt;/font&gt;" style="shape=partialRectangle;html=1;whiteSpace=wrap;connectable=0;fillColor=none;top=0;left=0;bottom=0;right=0;overflow=hidden;labelBackgroundColor=#FFFFFF;" parent="243" vertex="1" visible="0">
                    <mxGeometry x="71" width="71" height="18" as="geometry">
                        <mxRectangle width="71" height="18" as="alternateBounds"/>
                    </mxGeometry>
                </mxCell>
                <mxCell id="267" style="shape=partialRectangle;html=1;whiteSpace=wrap;connectable=0;fillColor=none;top=0;left=0;bottom=0;right=0;overflow=hidden;labelBackgroundColor=#FFFFFF;" parent="243" vertex="1" visible="0">
                    <mxGeometry x="142" width="71" height="18" as="geometry">
                        <mxRectangle width="71" height="18" as="alternateBounds"/>
                    </mxGeometry>
                </mxCell>
                <mxCell id="245" value="" style="shape=tableRow;horizontal=0;startSize=0;swimlaneHead=0;swimlaneBody=0;top=0;left=0;bottom=0;right=0;collapsible=0;dropTarget=0;fillColor=none;points=[[0,0.5],[1,0.5]];portConstraint=eastwest;labelBackgroundColor=#FFFFCC;" parent="242" vertex="1">
                    <mxGeometry y="18" width="213.33" height="8" as="geometry"/>
                </mxCell>
                <mxCell id="270" style="shape=partialRectangle;html=1;whiteSpace=wrap;connectable=0;fillColor=none;top=0;left=0;bottom=0;right=0;overflow=hidden;labelBackgroundColor=#FFFFCC;" parent="245" vertex="1">
                    <mxGeometry width="71" height="8" as="geometry">
                        <mxRectangle width="71" height="8" as="alternateBounds"/>
                    </mxGeometry>
                </mxCell>
                <mxCell id="246" value="" style="shape=partialRectangle;html=1;whiteSpace=wrap;connectable=0;fillColor=none;top=0;left=0;bottom=0;right=0;overflow=hidden;labelBackgroundColor=#FFFFCC;" parent="245" vertex="1">
                    <mxGeometry x="71" width="71" height="8" as="geometry">
                        <mxRectangle width="71" height="8" as="alternateBounds"/>
                    </mxGeometry>
                </mxCell>
                <mxCell id="268" style="shape=partialRectangle;html=1;whiteSpace=wrap;connectable=0;fillColor=none;top=0;left=0;bottom=0;right=0;overflow=hidden;labelBackgroundColor=#FFFFCC;" parent="245" vertex="1">
                    <mxGeometry x="142" width="71" height="8" as="geometry">
                        <mxRectangle width="71" height="8" as="alternateBounds"/>
                    </mxGeometry>
                </mxCell>
                <mxCell id="256" value="" style="rounded=1;whiteSpace=wrap;html=1;arcSize=12;fillColor=#FFFFCC;" parent="1" vertex="1">
                    <mxGeometry x="448.08000000000004" y="365.71000000000004" width="57.4" height="149" as="geometry"/>
                </mxCell>
                <mxCell id="249" value="&lt;span style=&quot;color: rgb(51, 51, 51); font-style: normal; font-variant-ligatures: normal; font-variant-caps: normal; letter-spacing: normal; orphans: 2; text-align: center; text-indent: 0px; text-transform: none; widows: 2; word-spacing: 0px; -webkit-text-stroke-width: 0px; text-decoration-thickness: initial; text-decoration-style: initial; text-decoration-color: initial; float: none; display: inline !important;&quot;&gt;&lt;font style=&quot;font-size: 14px;&quot; data-font-src=&quot;https://fonts.googleapis.com/css?family=Linux+Libertine&quot; face=&quot;Linux Libertine&quot;&gt;Logic Unit:&lt;/font&gt;&lt;/span&gt;" style="text;whiteSpace=wrap;html=1;" parent="1" vertex="1">
                    <mxGeometry x="46.89" y="34.5" width="69.11" height="28.5" as="geometry"/>
                </mxCell>
                <mxCell id="250" value="" style="rounded=1;whiteSpace=wrap;html=1;labelBackgroundColor=none;fillStyle=solid;strokeColor=#000000;fontFamily=Linux Libertine;fontSource=https%3A%2F%2Ffonts.googleapis.com%2Fcss%3Ffamily%3DLinux%2BLibertine;fontSize=13;fillColor=none;" parent="1" vertex="1">
                    <mxGeometry x="136.89000000000001" y="38.5" width="60.38" height="23" as="geometry"/>
                </mxCell>
                <mxCell id="251" value="&lt;span style=&quot;color: rgb(51, 51, 51); font-style: normal; font-variant-ligatures: normal; font-variant-caps: normal; letter-spacing: normal; orphans: 2; text-align: center; text-indent: 0px; text-transform: none; widows: 2; word-spacing: 0px; -webkit-text-stroke-width: 0px; text-decoration-thickness: initial; text-decoration-style: initial; text-decoration-color: initial; float: none; display: inline !important;&quot;&gt;&lt;font style=&quot;font-size: 14px;&quot; data-font-src=&quot;https://fonts.googleapis.com/css?family=Linux+Libertine&quot; face=&quot;Linux Libertine&quot;&gt;Memory:&lt;/font&gt;&lt;/span&gt;" style="text;whiteSpace=wrap;html=1;" parent="1" vertex="1">
                    <mxGeometry x="46.89" y="68" width="73.11" height="28.01" as="geometry"/>
                </mxCell>
                <mxCell id="253" value="" style="rounded=0;whiteSpace=wrap;html=1;labelBackgroundColor=none;fillStyle=solid;strokeColor=#000000;fontFamily=Linux Libertine;fontSource=https%3A%2F%2Ffonts.googleapis.com%2Fcss%3Ffamily%3DLinux%2BLibertine;fontSize=13;fillColor=none;" parent="1" vertex="1">
                    <mxGeometry x="136.57000000000002" y="73.51" width="60.7" height="23" as="geometry"/>
                </mxCell>
                <mxCell id="257" value="" style="rounded=1;whiteSpace=wrap;html=1;arcSize=12;fillColor=#FFFFCC;" parent="1" vertex="1">
                    <mxGeometry x="444.08000000000004" y="370.09000000000003" width="57.4" height="149" as="geometry"/>
                </mxCell>
                <mxCell id="258" value="" style="rounded=1;whiteSpace=wrap;html=1;arcSize=12;fillColor=#FFFFCC;" parent="1" vertex="1">
                    <mxGeometry x="440.5900000000001" y="374.03000000000003" width="57.4" height="149" as="geometry"/>
                </mxCell>
                <mxCell id="P1_Tf1mKQQPxvqgQwp_o-101" value="" style="rounded=1;whiteSpace=wrap;html=1;arcSize=12;fillColor=#FFFFCC;" parent="1" vertex="1">
                    <mxGeometry x="436.6" y="378.67" width="57.4" height="154.33" as="geometry"/>
                </mxCell>
                <mxCell id="P1_Tf1mKQQPxvqgQwp_o-106" style="edgeStyle=none;html=1;entryX=0.165;entryY=0.132;entryDx=0;entryDy=0;entryPerimeter=0;endArrow=none;endFill=0;exitX=0.871;exitY=0.78;exitDx=0;exitDy=0;exitPerimeter=0;" parent="1" source="P1_Tf1mKQQPxvqgQwp_o-107" target="P1_Tf1mKQQPxvqgQwp_o-110" edge="1">
                    <mxGeometry relative="1" as="geometry"/>
                </mxCell>
                <mxCell id="P1_Tf1mKQQPxvqgQwp_o-107" value="" style="verticalLabelPosition=bottom;shadow=0;dashed=0;align=center;html=1;verticalAlign=top;shape=mxgraph.electrical.abstract.summation_point;strokeWidth=1;fontColor=#FF0000;" parent="1" vertex="1">
                    <mxGeometry x="443.73999999999995" y="389.05" width="15" height="15" as="geometry"/>
                </mxCell>
                <mxCell id="P1_Tf1mKQQPxvqgQwp_o-108" style="edgeStyle=none;html=1;entryX=0.799;entryY=0.129;entryDx=0;entryDy=0;entryPerimeter=0;endArrow=none;endFill=0;exitX=0.209;exitY=0.865;exitDx=0;exitDy=0;exitPerimeter=0;" parent="1" source="P1_Tf1mKQQPxvqgQwp_o-110" target="P1_Tf1mKQQPxvqgQwp_o-115" edge="1">
                    <mxGeometry relative="1" as="geometry"/>
                </mxCell>
                <mxCell id="P1_Tf1mKQQPxvqgQwp_o-109" style="edgeStyle=none;html=1;endArrow=none;endFill=0;" parent="1" source="P1_Tf1mKQQPxvqgQwp_o-110" target="P1_Tf1mKQQPxvqgQwp_o-130" edge="1">
                    <mxGeometry relative="1" as="geometry"/>
                </mxCell>
                <mxCell id="P1_Tf1mKQQPxvqgQwp_o-110" value="" style="verticalLabelPosition=bottom;shadow=0;dashed=0;align=center;html=1;verticalAlign=top;shape=mxgraph.electrical.abstract.summation_point;strokeWidth=1;fontColor=#FF0000;" parent="1" vertex="1">
                    <mxGeometry x="461.79" y="404.04999999999995" width="15" height="15" as="geometry"/>
                </mxCell>
                <mxCell id="P1_Tf1mKQQPxvqgQwp_o-115" value="" style="verticalLabelPosition=bottom;shadow=0;dashed=0;align=center;html=1;verticalAlign=top;shape=mxgraph.electrical.abstract.summation_point;strokeWidth=1;fontColor=#FF0000;" parent="1" vertex="1">
                    <mxGeometry x="444.5899999999999" y="424.11999999999995" width="15" height="15" as="geometry"/>
                </mxCell>
                <mxCell id="P1_Tf1mKQQPxvqgQwp_o-120" style="edgeStyle=none;html=1;entryX=0.145;entryY=0.062;entryDx=0;entryDy=0;entryPerimeter=0;endArrow=none;endFill=0;exitX=0.802;exitY=0.918;exitDx=0;exitDy=0;exitPerimeter=0;" parent="1" source="P1_Tf1mKQQPxvqgQwp_o-121" target="P1_Tf1mKQQPxvqgQwp_o-129" edge="1">
                    <mxGeometry relative="1" as="geometry"/>
                </mxCell>
                <mxCell id="P1_Tf1mKQQPxvqgQwp_o-121" value="" style="verticalLabelPosition=bottom;shadow=0;dashed=0;align=center;html=1;verticalAlign=top;shape=mxgraph.electrical.abstract.summation_point;strokeWidth=1;fontColor=#FF0000;" parent="1" vertex="1">
                    <mxGeometry x="444.2199999999999" y="464.53999999999996" width="15" height="15" as="geometry"/>
                </mxCell>
                <mxCell id="P1_Tf1mKQQPxvqgQwp_o-126" value="" style="verticalLabelPosition=bottom;shadow=0;dashed=0;align=center;html=1;verticalAlign=top;shape=mxgraph.electrical.abstract.summation_point;strokeWidth=1;fontColor=#FF0000;" parent="1" vertex="1">
                    <mxGeometry x="444.2199999999999" y="513.94" width="15" height="15" as="geometry"/>
                </mxCell>
                <mxCell id="P1_Tf1mKQQPxvqgQwp_o-127" style="edgeStyle=none;html=1;entryX=0.817;entryY=0.116;entryDx=0;entryDy=0;entryPerimeter=0;endArrow=none;endFill=0;exitX=0.191;exitY=0.937;exitDx=0;exitDy=0;exitPerimeter=0;" parent="1" source="P1_Tf1mKQQPxvqgQwp_o-129" target="P1_Tf1mKQQPxvqgQwp_o-126" edge="1">
                    <mxGeometry relative="1" as="geometry"/>
                </mxCell>
                <mxCell id="P1_Tf1mKQQPxvqgQwp_o-128" style="edgeStyle=none;html=1;endArrow=none;endFill=0;" parent="1" source="P1_Tf1mKQQPxvqgQwp_o-129" target="P1_Tf1mKQQPxvqgQwp_o-130" edge="1">
                    <mxGeometry relative="1" as="geometry"/>
                </mxCell>
                <mxCell id="P1_Tf1mKQQPxvqgQwp_o-129" value="" style="verticalLabelPosition=bottom;shadow=0;dashed=0;align=center;html=1;verticalAlign=top;shape=mxgraph.electrical.abstract.summation_point;strokeWidth=1;fontColor=#FF0000;" parent="1" vertex="1">
                    <mxGeometry x="461.79" y="485.2099999999999" width="15" height="15" as="geometry"/>
                </mxCell>
                <mxCell id="298" style="edgeStyle=none;rounded=0;html=1;entryX=0.75;entryY=0;entryDx=0;entryDy=0;strokeColor=default;strokeWidth=1;fontFamily=Linux Libertine;fontSource=https%3A%2F%2Ffonts.googleapis.com%2Fcss%3Ffamily%3DLinux%2BLibertine;fontSize=11;fontColor=#000000;startArrow=none;startFill=0;endArrow=none;endFill=0;fillColor=#E6E6E6;exitX=0.834;exitY=0.91;exitDx=0;exitDy=0;exitPerimeter=0;" parent="1" source="P1_Tf1mKQQPxvqgQwp_o-130" target="296" edge="1">
                    <mxGeometry relative="1" as="geometry"/>
                </mxCell>
                <mxCell id="300" style="edgeStyle=none;rounded=0;html=1;entryX=0.75;entryY=0;entryDx=0;entryDy=0;strokeColor=default;strokeWidth=1;fontFamily=Linux Libertine;fontSource=https%3A%2F%2Ffonts.googleapis.com%2Fcss%3Ffamily%3DLinux%2BLibertine;fontSize=11;fontColor=#000000;startArrow=none;startFill=0;endArrow=none;endFill=0;fillColor=#E6E6E6;" parent="1" source="P1_Tf1mKQQPxvqgQwp_o-130" target="299" edge="1">
                    <mxGeometry relative="1" as="geometry"/>
                </mxCell>
                <mxCell id="P1_Tf1mKQQPxvqgQwp_o-130" value="" style="verticalLabelPosition=bottom;shadow=0;dashed=0;align=center;html=1;verticalAlign=top;shape=mxgraph.electrical.abstract.summation_point;strokeWidth=1;fontColor=#FF0000;" parent="1" vertex="1">
                    <mxGeometry x="473.99999999999994" y="446.11999999999995" width="15" height="15" as="geometry"/>
                </mxCell>
                <mxCell id="92" value="&lt;span style=&quot;color: rgb(51, 51, 51); font-size: 12px; font-style: normal; font-variant-ligatures: normal; font-variant-caps: normal; font-weight: 400; letter-spacing: normal; orphans: 2; text-align: center; text-indent: 0px; text-transform: none; widows: 2; word-spacing: 0px; -webkit-text-stroke-width: 0px; text-decoration-thickness: initial; text-decoration-style: initial; text-decoration-color: initial; float: none; display: inline !important;&quot;&gt;&lt;font data-font-src=&quot;https://fonts.googleapis.com/css?family=Linux+Libertine&quot; face=&quot;Linux Libertine&quot;&gt;4 Dyna Adders&lt;/font&gt;&lt;/span&gt;" style="text;whiteSpace=wrap;html=1;" parent="1" vertex="1">
                    <mxGeometry x="429.83000000000004" y="341.74" width="82.02" height="23.25" as="geometry"/>
                </mxCell>
                <mxCell id="126" style="edgeStyle=none;html=1;entryX=0.698;entryY=1.008;entryDx=0;entryDy=0;entryPerimeter=0;fontFamily=Linux Libertine;fontSource=https%3A%2F%2Ffonts.googleapis.com%2Fcss%3Ffamily%3DLinux%2BLibertine;endArrow=none;endFill=0;exitX=0.873;exitY=0.167;exitDx=0;exitDy=0;exitPerimeter=0;" parent="1" source="P1_Tf1mKQQPxvqgQwp_o-130" target="280" edge="1">
                    <mxGeometry relative="1" as="geometry"/>
                </mxCell>
                <mxCell id="276" style="rounded=0;html=1;entryX=0.071;entryY=0.799;entryDx=0;entryDy=0;entryPerimeter=0;strokeColor=default;strokeWidth=1;fontFamily=Linux Libertine;fontSource=https%3A%2F%2Ffonts.googleapis.com%2Fcss%3Ffamily%3DLinux%2BLibertine;fontSize=13;fontColor=#000000;startArrow=none;startFill=0;endArrow=none;endFill=0;fillColor=#E6E6E6;exitX=0.25;exitY=1;exitDx=0;exitDy=0;" parent="1" source="272" target="P1_Tf1mKQQPxvqgQwp_o-107" edge="1">
                    <mxGeometry relative="1" as="geometry"/>
                </mxCell>
                <mxCell id="277" style="edgeStyle=none;rounded=0;html=1;entryX=0.75;entryY=0;entryDx=0;entryDy=0;strokeColor=default;strokeWidth=1;fontFamily=Linux Libertine;fontSource=https%3A%2F%2Ffonts.googleapis.com%2Fcss%3Ffamily%3DLinux%2BLibertine;fontSize=13;fontColor=#000000;startArrow=none;startFill=0;endArrow=none;endFill=0;fillColor=#E6E6E6;exitX=0.75;exitY=1;exitDx=0;exitDy=0;" parent="1" source="272" target="280" edge="1">
                    <mxGeometry relative="1" as="geometry"/>
                </mxCell>
                <mxCell id="272" value="" style="shape=trapezoid;perimeter=trapezoidPerimeter;whiteSpace=wrap;html=1;fixedSize=1;labelBackgroundColor=none;fillStyle=solid;strokeColor=default;fontFamily=Linux Libertine;fontSource=https%3A%2F%2Ffonts.googleapis.com%2Fcss%3Ffamily%3DLinux%2BLibertine;fontSize=13;fontColor=#000000;fillColor=default;gradientColor=none;rotation=-90;size=6.142376815488717;" parent="1" vertex="1">
                    <mxGeometry x="403.95" y="392.04" width="28.6" height="11.39" as="geometry"/>
                </mxCell>
                <mxCell id="275" style="edgeStyle=orthogonalEdgeStyle;rounded=0;html=1;strokeColor=default;strokeWidth=1;fontFamily=Linux Libertine;fontSource=https%3A%2F%2Ffonts.googleapis.com%2Fcss%3Ffamily%3DLinux%2BLibertine;fontSize=13;fontColor=#000000;startArrow=none;startFill=0;endArrow=none;endFill=0;fillColor=#E6E6E6;exitX=0.319;exitY=0.961;exitDx=0;exitDy=0;exitPerimeter=0;" parent="1" source="245" edge="1">
                    <mxGeometry relative="1" as="geometry">
                        <mxPoint x="433" y="346" as="sourcePoint"/>
                        <mxPoint x="418" y="385" as="targetPoint"/>
                        <Array as="points">
                            <mxPoint x="429" y="347"/>
                            <mxPoint x="429" y="370"/>
                            <mxPoint x="418" y="370"/>
                            <mxPoint x="418" y="388"/>
                            <mxPoint x="418" y="388"/>
                        </Array>
                    </mxGeometry>
                </mxCell>
                <mxCell id="281" style="edgeStyle=none;rounded=0;html=1;entryX=0;entryY=0.5;entryDx=0;entryDy=0;entryPerimeter=0;strokeColor=default;strokeWidth=1;fontFamily=Linux Libertine;fontSource=https%3A%2F%2Ffonts.googleapis.com%2Fcss%3Ffamily%3DLinux%2BLibertine;fontSize=13;fontColor=#000000;startArrow=none;startFill=0;endArrow=none;endFill=0;fillColor=#E6E6E6;" parent="1" source="280" target="97" edge="1">
                    <mxGeometry relative="1" as="geometry"/>
                </mxCell>
                <mxCell id="280" value="" style="shape=trapezoid;perimeter=trapezoidPerimeter;whiteSpace=wrap;html=1;fixedSize=1;labelBackgroundColor=none;fillStyle=solid;strokeColor=default;fontFamily=Linux Libertine;fontSource=https%3A%2F%2Ffonts.googleapis.com%2Fcss%3Ffamily%3DLinux%2BLibertine;fontSize=13;fontColor=#000000;fillColor=default;gradientColor=none;rotation=-90;size=9.971649373372372;flipH=1;flipV=1;" parent="1" vertex="1">
                    <mxGeometry x="507.72" y="377.25" width="28.6" height="11.39" as="geometry"/>
                </mxCell>
                <mxCell id="282" style="edgeStyle=orthogonalEdgeStyle;rounded=0;html=1;entryX=1;entryY=0.5;entryDx=0;entryDy=0;strokeColor=default;strokeWidth=1;fontFamily=Linux Libertine;fontSource=https%3A%2F%2Ffonts.googleapis.com%2Fcss%3Ffamily%3DLinux%2BLibertine;fontSize=13;fontColor=#000000;startArrow=none;startFill=0;endArrow=none;endFill=0;fillColor=#E6E6E6;" parent="1" source="245" target="280" edge="1">
                    <mxGeometry relative="1" as="geometry">
                        <Array as="points">
                            <mxPoint x="585" y="343"/>
                            <mxPoint x="585" y="364"/>
                            <mxPoint x="522" y="364"/>
                        </Array>
                    </mxGeometry>
                </mxCell>
                <mxCell id="293" style="edgeStyle=none;rounded=0;html=1;strokeColor=default;strokeWidth=1;fontFamily=Linux Libertine;fontSource=https%3A%2F%2Ffonts.googleapis.com%2Fcss%3Ffamily%3DLinux%2BLibertine;fontSize=11;fontColor=#000000;startArrow=none;startFill=0;endArrow=none;endFill=0;fillColor=#E6E6E6;exitX=0.33;exitY=1.033;exitDx=0;exitDy=0;exitPerimeter=0;entryX=0.036;entryY=0.267;entryDx=0;entryDy=0;entryPerimeter=0;" parent="1" source="287" target="P1_Tf1mKQQPxvqgQwp_o-126" edge="1">
                    <mxGeometry relative="1" as="geometry">
                        <mxPoint x="444" y="514" as="targetPoint"/>
                    </mxGeometry>
                </mxCell>
                <mxCell id="295" style="edgeStyle=none;rounded=0;html=1;entryX=0.028;entryY=0.413;entryDx=0;entryDy=0;entryPerimeter=0;strokeColor=default;strokeWidth=1;fontFamily=Linux Libertine;fontSource=https%3A%2F%2Ffonts.googleapis.com%2Fcss%3Ffamily%3DLinux%2BLibertine;fontSize=11;fontColor=#000000;startArrow=none;startFill=0;endArrow=none;endFill=0;fillColor=#E6E6E6;exitX=0.717;exitY=1.04;exitDx=0;exitDy=0;exitPerimeter=0;" parent="1" source="296" target="117" edge="1">
                    <mxGeometry relative="1" as="geometry"/>
                </mxCell>
                <mxCell id="287" value="" style="shape=trapezoid;perimeter=trapezoidPerimeter;whiteSpace=wrap;html=1;fixedSize=1;labelBackgroundColor=none;fillStyle=solid;strokeColor=default;fontFamily=Linux Libertine;fontSource=https%3A%2F%2Ffonts.googleapis.com%2Fcss%3Ffamily%3DLinux%2BLibertine;fontSize=13;fontColor=#000000;fillColor=default;gradientColor=none;rotation=-90;size=4.762762328282236;" parent="1" vertex="1">
                    <mxGeometry x="404.73" y="511.26" width="22.91" height="11.39" as="geometry"/>
                </mxCell>
                <mxCell id="294" style="edgeStyle=none;rounded=0;html=1;entryX=0.086;entryY=0.787;entryDx=0;entryDy=0;entryPerimeter=0;strokeColor=default;strokeWidth=1;fontFamily=Linux Libertine;fontSource=https%3A%2F%2Ffonts.googleapis.com%2Fcss%3Ffamily%3DLinux%2BLibertine;fontSize=11;fontColor=#000000;startArrow=none;startFill=0;endArrow=none;endFill=0;fillColor=#E6E6E6;" parent="1" source="290" target="P1_Tf1mKQQPxvqgQwp_o-126" edge="1">
                    <mxGeometry relative="1" as="geometry"/>
                </mxCell>
                <mxCell id="301" style="edgeStyle=none;rounded=0;html=1;entryX=0.5;entryY=0;entryDx=0;entryDy=0;strokeColor=default;strokeWidth=1;fontFamily=Linux Libertine;fontSource=https%3A%2F%2Ffonts.googleapis.com%2Fcss%3Ffamily%3DLinux%2BLibertine;fontSize=11;fontColor=#000000;startArrow=none;startFill=0;endArrow=none;endFill=0;fillColor=#E6E6E6;exitX=0.405;exitY=1.032;exitDx=0;exitDy=0;exitPerimeter=0;" parent="1" source="290" target="299" edge="1">
                    <mxGeometry relative="1" as="geometry"/>
                </mxCell>
                <mxCell id="290" value="" style="shape=trapezoid;perimeter=trapezoidPerimeter;whiteSpace=wrap;html=1;fixedSize=1;labelBackgroundColor=none;fillStyle=solid;strokeColor=default;fontFamily=Linux Libertine;fontSource=https%3A%2F%2Ffonts.googleapis.com%2Fcss%3Ffamily%3DLinux%2BLibertine;fontSize=13;fontColor=#000000;fillColor=default;gradientColor=none;rotation=-90;size=4.762762328282236;" parent="1" vertex="1">
                    <mxGeometry x="405.23" y="543.75" width="21.91" height="11.39" as="geometry"/>
                </mxCell>
                <mxCell id="291" value="&lt;i&gt;&lt;font data-font-src=&quot;https://fonts.googleapis.com/css?family=Linux+Libertine&quot; face=&quot;Linux Libertine&quot;&gt;mm&lt;/font&gt;&lt;/i&gt;" style="text;html=1;strokeColor=none;fillColor=none;align=center;verticalAlign=middle;whiteSpace=wrap;rounded=0;fontSize=12;" parent="1" vertex="1">
                    <mxGeometry x="512.24" y="392.4599999999998" width="22.47" height="19.65" as="geometry"/>
                </mxCell>
                <mxCell id="297" value="" style="edgeStyle=none;rounded=0;html=1;entryX=0.5;entryY=0;entryDx=0;entryDy=0;strokeColor=default;strokeWidth=1;fontFamily=Linux Libertine;fontSource=https%3A%2F%2Ffonts.googleapis.com%2Fcss%3Ffamily%3DLinux%2BLibertine;fontSize=11;fontColor=#000000;startArrow=none;startFill=0;endArrow=none;endFill=0;fillColor=#E6E6E6;exitX=0.717;exitY=1.04;exitDx=0;exitDy=0;exitPerimeter=0;" parent="1" source="287" target="296" edge="1">
                    <mxGeometry relative="1" as="geometry">
                        <mxPoint x="422.3356" y="509.78234999999995" as="sourcePoint"/>
                        <mxPoint x="540.5800000000002" y="505.7650000000001" as="targetPoint"/>
                    </mxGeometry>
                </mxCell>
                <mxCell id="296" value="" style="shape=trapezoid;perimeter=trapezoidPerimeter;whiteSpace=wrap;html=1;fixedSize=1;labelBackgroundColor=none;fillStyle=solid;strokeColor=default;fontFamily=Linux Libertine;fontSource=https%3A%2F%2Ffonts.googleapis.com%2Fcss%3Ffamily%3DLinux%2BLibertine;fontSize=13;fontColor=#000000;fillColor=default;gradientColor=none;rotation=-90;size=5.048295144714871;flipH=1;flipV=1;" parent="1" vertex="1">
                    <mxGeometry x="512.7" y="497.91" width="21.29" height="11.39" as="geometry"/>
                </mxCell>
                <mxCell id="302" style="edgeStyle=none;rounded=0;html=1;entryX=0;entryY=0.5;entryDx=0;entryDy=0;entryPerimeter=0;strokeColor=#000000;strokeWidth=1;fontFamily=Linux Libertine;fontSource=https%3A%2F%2Ffonts.googleapis.com%2Fcss%3Ffamily%3DLinux%2BLibertine;fontSize=11;fontColor=#000000;startArrow=none;startFill=0;endArrow=none;endFill=0;fillColor=#E6E6E6;" parent="1" source="299" target="109" edge="1">
                    <mxGeometry relative="1" as="geometry"/>
                </mxCell>
                <mxCell id="299" value="" style="shape=trapezoid;perimeter=trapezoidPerimeter;whiteSpace=wrap;html=1;fixedSize=1;labelBackgroundColor=none;fillStyle=solid;strokeColor=default;fontFamily=Linux Libertine;fontSource=https%3A%2F%2Ffonts.googleapis.com%2Fcss%3Ffamily%3DLinux%2BLibertine;fontSize=13;fontColor=#000000;fillColor=default;gradientColor=none;rotation=-90;size=5.048295144714871;flipH=1;flipV=1;" parent="1" vertex="1">
                    <mxGeometry x="512.76" y="527.37" width="21.42" height="11.39" as="geometry"/>
                </mxCell>
                <mxCell id="303" value="&lt;span style=&quot;color: rgb(51, 51, 51); font-family: &amp;quot;Linux Libertine&amp;quot;; text-align: center;&quot;&gt;&lt;b&gt;&lt;font style=&quot;font-size: 16px;&quot;&gt;............&lt;/font&gt;&lt;/b&gt;&lt;/span&gt;" style="text;whiteSpace=wrap;html=1;rotation=-90;" parent="1" vertex="1">
                    <mxGeometry x="380.65999999999997" y="430.53000000000003" width="67.42" height="36" as="geometry"/>
                </mxCell>
                <mxCell id="304" value="&lt;span style=&quot;color: rgb(51, 51, 51); font-family: &amp;quot;Linux Libertine&amp;quot;; text-align: center;&quot;&gt;&lt;b&gt;&lt;font style=&quot;font-size: 16px;&quot;&gt;............&lt;/font&gt;&lt;/b&gt;&lt;/span&gt;" style="text;whiteSpace=wrap;html=1;rotation=-90;" parent="1" vertex="1">
                    <mxGeometry x="486.38" y="417.09000000000003" width="67.42" height="36" as="geometry"/>
                </mxCell>
                <mxCell id="308" value="" style="rounded=1;whiteSpace=wrap;html=1;arcSize=6;fillColor=#FFFFFF;" parent="1" vertex="1">
                    <mxGeometry x="589" y="400" width="56" height="161" as="geometry"/>
                </mxCell>
                <mxCell id="366" style="edgeStyle=orthogonalEdgeStyle;rounded=0;html=1;entryX=1;entryY=0.5;entryDx=0;entryDy=0;strokeColor=#000000;strokeWidth=1;fontFamily=Linux Libertine;fontSource=https%3A%2F%2Ffonts.googleapis.com%2Fcss%3Ffamily%3DLinux%2BLibertine;fontSize=12;fontColor=#000000;startArrow=none;startFill=0;endArrow=none;endFill=0;fillColor=#E6E6E6;" parent="1" source="310" target="238" edge="1">
                    <mxGeometry relative="1" as="geometry">
                        <Array as="points">
                            <mxPoint x="606" y="569"/>
                        </Array>
                    </mxGeometry>
                </mxCell>
                <mxCell id="310" value="" style="shape=table;html=1;whiteSpace=wrap;startSize=0;container=1;collapsible=0;childLayout=tableLayout;labelBackgroundColor=#FFFFCC;fillColor=#FFFFFF;" parent="1" vertex="1">
                    <mxGeometry x="595.6800000000001" y="412.11" width="42.64" height="105.09" as="geometry"/>
                </mxCell>
                <mxCell id="311" value="" style="shape=tableRow;horizontal=0;startSize=0;swimlaneHead=0;swimlaneBody=0;top=0;left=0;bottom=0;right=0;collapsible=0;dropTarget=0;fillColor=none;points=[[0,0.5],[1,0.5]];portConstraint=eastwest;labelBackgroundColor=#FFFFCC;" parent="310" vertex="1">
                    <mxGeometry width="42.64" height="20" as="geometry"/>
                </mxCell>
                <mxCell id="312" value="&lt;font style=&quot;font-size: 12px;&quot; face=&quot;Linux Libertine&quot;&gt;&lt;i&gt;r&lt;sub&gt;wb&lt;/sub&gt;&lt;/i&gt;&lt;/font&gt;" style="shape=partialRectangle;html=1;whiteSpace=wrap;connectable=0;fillColor=none;top=0;left=0;bottom=0;right=0;overflow=hidden;labelBackgroundColor=#FFFFFF;" parent="311" vertex="1">
                    <mxGeometry width="21" height="20" as="geometry">
                        <mxRectangle width="21" height="20" as="alternateBounds"/>
                    </mxGeometry>
                </mxCell>
                <mxCell id="355" value="&lt;font data-font-src=&quot;https://fonts.googleapis.com/css?family=Linux+Libertine&quot; face=&quot;Linux Libertine&quot;&gt;&lt;i&gt;src&lt;/i&gt;&lt;/font&gt;" style="shape=partialRectangle;html=1;whiteSpace=wrap;connectable=0;fillColor=none;top=0;left=0;bottom=0;right=0;overflow=hidden;labelBackgroundColor=#FFFFFF;" parent="311" vertex="1">
                    <mxGeometry x="21" width="22" height="20" as="geometry">
                        <mxRectangle width="22" height="20" as="alternateBounds"/>
                    </mxGeometry>
                </mxCell>
                <mxCell id="313" value="" style="shape=tableRow;horizontal=0;startSize=0;swimlaneHead=0;swimlaneBody=0;top=0;left=0;bottom=0;right=0;collapsible=0;dropTarget=0;fillColor=none;points=[[0,0.5],[1,0.5]];portConstraint=eastwest;labelBackgroundColor=#FFFFCC;" parent="310" vertex="1">
                    <mxGeometry y="20" width="42.64" height="9" as="geometry"/>
                </mxCell>
                <mxCell id="314" value="" style="shape=partialRectangle;html=1;whiteSpace=wrap;connectable=0;fillColor=none;top=0;left=0;bottom=0;right=0;overflow=hidden;labelBackgroundColor=#FFFFCC;" parent="313" vertex="1">
                    <mxGeometry width="21" height="9" as="geometry">
                        <mxRectangle width="21" height="9" as="alternateBounds"/>
                    </mxGeometry>
                </mxCell>
                <mxCell id="356" style="shape=partialRectangle;html=1;whiteSpace=wrap;connectable=0;fillColor=none;top=0;left=0;bottom=0;right=0;overflow=hidden;labelBackgroundColor=#FFFFCC;" parent="313" vertex="1">
                    <mxGeometry x="21" width="22" height="9" as="geometry">
                        <mxRectangle width="22" height="9" as="alternateBounds"/>
                    </mxGeometry>
                </mxCell>
                <mxCell id="315" value="" style="shape=tableRow;horizontal=0;startSize=0;swimlaneHead=0;swimlaneBody=0;top=0;left=0;bottom=0;right=0;collapsible=0;dropTarget=0;fillColor=none;points=[[0,0.5],[1,0.5]];portConstraint=eastwest;labelBackgroundColor=#FFFFCC;" parent="310" vertex="1">
                    <mxGeometry y="29" width="42.64" height="10" as="geometry"/>
                </mxCell>
                <mxCell id="316" value="" style="shape=partialRectangle;html=1;whiteSpace=wrap;connectable=0;fillColor=none;top=0;left=0;bottom=0;right=0;overflow=hidden;labelBackgroundColor=#FFFFCC;" parent="315" vertex="1">
                    <mxGeometry width="21" height="10" as="geometry">
                        <mxRectangle width="21" height="10" as="alternateBounds"/>
                    </mxGeometry>
                </mxCell>
                <mxCell id="357" style="shape=partialRectangle;html=1;whiteSpace=wrap;connectable=0;fillColor=none;top=0;left=0;bottom=0;right=0;overflow=hidden;labelBackgroundColor=#FFFFCC;" parent="315" vertex="1">
                    <mxGeometry x="21" width="22" height="10" as="geometry">
                        <mxRectangle width="22" height="10" as="alternateBounds"/>
                    </mxGeometry>
                </mxCell>
                <mxCell id="317" style="shape=tableRow;horizontal=0;startSize=0;swimlaneHead=0;swimlaneBody=0;top=0;left=0;bottom=0;right=0;collapsible=0;dropTarget=0;fillColor=none;points=[[0,0.5],[1,0.5]];portConstraint=eastwest;labelBackgroundColor=#FFFFCC;" parent="310" vertex="1">
                    <mxGeometry y="39" width="42.64" height="9" as="geometry"/>
                </mxCell>
                <mxCell id="318" style="shape=partialRectangle;html=1;whiteSpace=wrap;connectable=0;fillColor=none;top=0;left=0;bottom=0;right=0;overflow=hidden;labelBackgroundColor=#FFFFCC;" parent="317" vertex="1">
                    <mxGeometry width="21" height="9" as="geometry">
                        <mxRectangle width="21" height="9" as="alternateBounds"/>
                    </mxGeometry>
                </mxCell>
                <mxCell id="358" style="shape=partialRectangle;html=1;whiteSpace=wrap;connectable=0;fillColor=none;top=0;left=0;bottom=0;right=0;overflow=hidden;labelBackgroundColor=#FFFFCC;" parent="317" vertex="1">
                    <mxGeometry x="21" width="22" height="9" as="geometry">
                        <mxRectangle width="22" height="9" as="alternateBounds"/>
                    </mxGeometry>
                </mxCell>
                <mxCell id="319" style="shape=tableRow;horizontal=0;startSize=0;swimlaneHead=0;swimlaneBody=0;top=0;left=0;bottom=0;right=0;collapsible=0;dropTarget=0;fillColor=none;points=[[0,0.5],[1,0.5]];portConstraint=eastwest;labelBackgroundColor=#FFFFCC;" parent="310" vertex="1">
                    <mxGeometry y="48" width="42.64" height="10" as="geometry"/>
                </mxCell>
                <mxCell id="320" style="shape=partialRectangle;html=1;whiteSpace=wrap;connectable=0;fillColor=none;top=0;left=0;bottom=0;right=0;overflow=hidden;labelBackgroundColor=#FFFFCC;" parent="319" vertex="1">
                    <mxGeometry width="21" height="10" as="geometry">
                        <mxRectangle width="21" height="10" as="alternateBounds"/>
                    </mxGeometry>
                </mxCell>
                <mxCell id="359" style="shape=partialRectangle;html=1;whiteSpace=wrap;connectable=0;fillColor=none;top=0;left=0;bottom=0;right=0;overflow=hidden;labelBackgroundColor=#FFFFCC;" parent="319" vertex="1">
                    <mxGeometry x="21" width="22" height="10" as="geometry">
                        <mxRectangle width="22" height="10" as="alternateBounds"/>
                    </mxGeometry>
                </mxCell>
                <mxCell id="321" style="shape=tableRow;horizontal=0;startSize=0;swimlaneHead=0;swimlaneBody=0;top=0;left=0;bottom=0;right=0;collapsible=0;dropTarget=0;fillColor=none;points=[[0,0.5],[1,0.5]];portConstraint=eastwest;labelBackgroundColor=#FFFFCC;" parent="310" vertex="1">
                    <mxGeometry y="58" width="42.64" height="9" as="geometry"/>
                </mxCell>
                <mxCell id="322" style="shape=partialRectangle;html=1;whiteSpace=wrap;connectable=0;fillColor=none;top=0;left=0;bottom=0;right=0;overflow=hidden;labelBackgroundColor=#FFFFCC;" parent="321" vertex="1">
                    <mxGeometry width="21" height="9" as="geometry">
                        <mxRectangle width="21" height="9" as="alternateBounds"/>
                    </mxGeometry>
                </mxCell>
                <mxCell id="360" style="shape=partialRectangle;html=1;whiteSpace=wrap;connectable=0;fillColor=none;top=0;left=0;bottom=0;right=0;overflow=hidden;labelBackgroundColor=#FFFFCC;" parent="321" vertex="1">
                    <mxGeometry x="21" width="22" height="9" as="geometry">
                        <mxRectangle width="22" height="9" as="alternateBounds"/>
                    </mxGeometry>
                </mxCell>
                <mxCell id="323" style="shape=tableRow;horizontal=0;startSize=0;swimlaneHead=0;swimlaneBody=0;top=0;left=0;bottom=0;right=0;collapsible=0;dropTarget=0;fillColor=none;points=[[0,0.5],[1,0.5]];portConstraint=eastwest;labelBackgroundColor=#FFFFCC;" parent="310" vertex="1">
                    <mxGeometry y="67" width="42.64" height="10" as="geometry"/>
                </mxCell>
                <mxCell id="324" style="shape=partialRectangle;html=1;whiteSpace=wrap;connectable=0;fillColor=none;top=0;left=0;bottom=0;right=0;overflow=hidden;labelBackgroundColor=#FFFFCC;" parent="323" vertex="1">
                    <mxGeometry width="21" height="10" as="geometry">
                        <mxRectangle width="21" height="10" as="alternateBounds"/>
                    </mxGeometry>
                </mxCell>
                <mxCell id="361" style="shape=partialRectangle;html=1;whiteSpace=wrap;connectable=0;fillColor=none;top=0;left=0;bottom=0;right=0;overflow=hidden;labelBackgroundColor=#FFFFCC;" parent="323" vertex="1">
                    <mxGeometry x="21" width="22" height="10" as="geometry">
                        <mxRectangle width="22" height="10" as="alternateBounds"/>
                    </mxGeometry>
                </mxCell>
                <mxCell id="325" style="shape=tableRow;horizontal=0;startSize=0;swimlaneHead=0;swimlaneBody=0;top=0;left=0;bottom=0;right=0;collapsible=0;dropTarget=0;fillColor=none;points=[[0,0.5],[1,0.5]];portConstraint=eastwest;labelBackgroundColor=#FFFFCC;" parent="310" vertex="1">
                    <mxGeometry y="77" width="42.64" height="9" as="geometry"/>
                </mxCell>
                <mxCell id="326" style="shape=partialRectangle;html=1;whiteSpace=wrap;connectable=0;fillColor=none;top=0;left=0;bottom=0;right=0;overflow=hidden;labelBackgroundColor=#FFFFCC;" parent="325" vertex="1">
                    <mxGeometry width="21" height="9" as="geometry">
                        <mxRectangle width="21" height="9" as="alternateBounds"/>
                    </mxGeometry>
                </mxCell>
                <mxCell id="362" style="shape=partialRectangle;html=1;whiteSpace=wrap;connectable=0;fillColor=none;top=0;left=0;bottom=0;right=0;overflow=hidden;labelBackgroundColor=#FFFFCC;" parent="325" vertex="1">
                    <mxGeometry x="21" width="22" height="9" as="geometry">
                        <mxRectangle width="22" height="9" as="alternateBounds"/>
                    </mxGeometry>
                </mxCell>
                <mxCell id="327" style="shape=tableRow;horizontal=0;startSize=0;swimlaneHead=0;swimlaneBody=0;top=0;left=0;bottom=0;right=0;collapsible=0;dropTarget=0;fillColor=none;points=[[0,0.5],[1,0.5]];portConstraint=eastwest;labelBackgroundColor=#FFFFCC;" parent="310" vertex="1">
                    <mxGeometry y="86" width="42.64" height="10" as="geometry"/>
                </mxCell>
                <mxCell id="328" style="shape=partialRectangle;html=1;whiteSpace=wrap;connectable=0;fillColor=none;top=0;left=0;bottom=0;right=0;overflow=hidden;labelBackgroundColor=#FFFFCC;" parent="327" vertex="1">
                    <mxGeometry width="21" height="10" as="geometry">
                        <mxRectangle width="21" height="10" as="alternateBounds"/>
                    </mxGeometry>
                </mxCell>
                <mxCell id="363" style="shape=partialRectangle;html=1;whiteSpace=wrap;connectable=0;fillColor=none;top=0;left=0;bottom=0;right=0;overflow=hidden;labelBackgroundColor=#FFFFCC;" parent="327" vertex="1">
                    <mxGeometry x="21" width="22" height="10" as="geometry">
                        <mxRectangle width="22" height="10" as="alternateBounds"/>
                    </mxGeometry>
                </mxCell>
                <mxCell id="345" style="shape=tableRow;horizontal=0;startSize=0;swimlaneHead=0;swimlaneBody=0;top=0;left=0;bottom=0;right=0;collapsible=0;dropTarget=0;fillColor=none;points=[[0,0.5],[1,0.5]];portConstraint=eastwest;labelBackgroundColor=#FFFFCC;" parent="310" vertex="1">
                    <mxGeometry y="96" width="42.64" height="9" as="geometry"/>
                </mxCell>
                <mxCell id="346" style="shape=partialRectangle;html=1;whiteSpace=wrap;connectable=0;fillColor=none;top=0;left=0;bottom=0;right=0;overflow=hidden;labelBackgroundColor=#FFFFCC;" parent="345" vertex="1">
                    <mxGeometry width="21" height="9" as="geometry">
                        <mxRectangle width="21" height="9" as="alternateBounds"/>
                    </mxGeometry>
                </mxCell>
                <mxCell id="364" style="shape=partialRectangle;html=1;whiteSpace=wrap;connectable=0;fillColor=none;top=0;left=0;bottom=0;right=0;overflow=hidden;labelBackgroundColor=#FFFFCC;" parent="345" vertex="1">
                    <mxGeometry x="21" width="22" height="9" as="geometry">
                        <mxRectangle width="22" height="9" as="alternateBounds"/>
                    </mxGeometry>
                </mxCell>
                <mxCell id="347" style="edgeStyle=none;rounded=0;html=1;entryX=0.01;entryY=0.951;entryDx=0;entryDy=0;entryPerimeter=0;strokeColor=#000000;strokeWidth=1;fontFamily=Linux Libertine;fontSource=https%3A%2F%2Ffonts.googleapis.com%2Fcss%3Ffamily%3DLinux%2BLibertine;fontSize=12;fontColor=#000000;startArrow=none;startFill=0;endArrow=none;endFill=0;fillColor=#E6E6E6;" parent="1" source="109" target="310" edge="1">
                    <mxGeometry relative="1" as="geometry"/>
                </mxCell>
                <mxCell id="350" style="edgeStyle=none;rounded=0;html=1;entryX=-0.025;entryY=0.681;entryDx=0;entryDy=0;entryPerimeter=0;strokeColor=#000000;strokeWidth=1;fontFamily=Linux Libertine;fontSource=https%3A%2F%2Ffonts.googleapis.com%2Fcss%3Ffamily%3DLinux%2BLibertine;fontSize=12;fontColor=#000000;startArrow=none;startFill=0;endArrow=none;endFill=0;fillColor=#E6E6E6;" parent="1" source="113" target="310" edge="1">
                    <mxGeometry relative="1" as="geometry"/>
                </mxCell>
                <mxCell id="349" style="edgeStyle=none;rounded=0;html=1;entryX=-0.019;entryY=0.772;entryDx=0;entryDy=0;entryPerimeter=0;strokeColor=#000000;strokeWidth=1;fontFamily=Linux Libertine;fontSource=https%3A%2F%2Ffonts.googleapis.com%2Fcss%3Ffamily%3DLinux%2BLibertine;fontSize=12;fontColor=#000000;startArrow=none;startFill=0;endArrow=none;endFill=0;fillColor=#E6E6E6;" parent="1" source="115" target="310" edge="1">
                    <mxGeometry relative="1" as="geometry"/>
                </mxCell>
                <mxCell id="348" style="edgeStyle=none;rounded=0;html=1;entryX=0.01;entryY=0.865;entryDx=0;entryDy=0;entryPerimeter=0;strokeColor=#000000;strokeWidth=1;fontFamily=Linux Libertine;fontSource=https%3A%2F%2Ffonts.googleapis.com%2Fcss%3Ffamily%3DLinux%2BLibertine;fontSize=12;fontColor=#000000;startArrow=none;startFill=0;endArrow=none;endFill=0;fillColor=#E6E6E6;" parent="1" source="117" target="310" edge="1">
                    <mxGeometry relative="1" as="geometry"/>
                </mxCell>
                <mxCell id="351" style="edgeStyle=none;rounded=0;html=1;entryX=-0.007;entryY=0.589;entryDx=0;entryDy=0;entryPerimeter=0;strokeColor=#000000;strokeWidth=1;fontFamily=Linux Libertine;fontSource=https%3A%2F%2Ffonts.googleapis.com%2Fcss%3Ffamily%3DLinux%2BLibertine;fontSize=12;fontColor=#000000;startArrow=none;startFill=0;endArrow=none;endFill=0;fillColor=#E6E6E6;exitX=0.95;exitY=0.76;exitDx=0;exitDy=0;exitPerimeter=0;" parent="1" source="107" target="310" edge="1">
                    <mxGeometry relative="1" as="geometry"/>
                </mxCell>
                <mxCell id="354" style="edgeStyle=none;rounded=0;html=1;entryX=-0.013;entryY=0.317;entryDx=0;entryDy=0;entryPerimeter=0;strokeColor=#000000;strokeWidth=1;fontFamily=Linux Libertine;fontSource=https%3A%2F%2Ffonts.googleapis.com%2Fcss%3Ffamily%3DLinux%2BLibertine;fontSize=12;fontColor=#000000;startArrow=none;startFill=0;endArrow=none;endFill=0;fillColor=#E6E6E6;exitX=0.877;exitY=0.917;exitDx=0;exitDy=0;exitPerimeter=0;" parent="1" source="97" target="310" edge="1">
                    <mxGeometry relative="1" as="geometry"/>
                </mxCell>
                <mxCell id="353" style="edgeStyle=none;rounded=0;html=1;entryX=-0.007;entryY=0.418;entryDx=0;entryDy=0;entryPerimeter=0;strokeColor=#000000;strokeWidth=1;fontFamily=Linux Libertine;fontSource=https%3A%2F%2Ffonts.googleapis.com%2Fcss%3Ffamily%3DLinux%2BLibertine;fontSize=12;fontColor=#000000;startArrow=none;startFill=0;endArrow=none;endFill=0;fillColor=#E6E6E6;exitX=0.884;exitY=0.887;exitDx=0;exitDy=0;exitPerimeter=0;" parent="1" source="P1_Tf1mKQQPxvqgQwp_o-136" target="310" edge="1">
                    <mxGeometry relative="1" as="geometry"/>
                </mxCell>
                <mxCell id="352" style="edgeStyle=none;rounded=0;html=1;entryX=0;entryY=0.5;entryDx=0;entryDy=0;strokeColor=#000000;strokeWidth=1;fontFamily=Linux Libertine;fontSource=https%3A%2F%2Ffonts.googleapis.com%2Fcss%3Ffamily%3DLinux%2BLibertine;fontSize=12;fontColor=#000000;startArrow=none;startFill=0;endArrow=none;endFill=0;fillColor=#E6E6E6;exitX=0.98;exitY=0.787;exitDx=0;exitDy=0;exitPerimeter=0;" parent="1" source="111" target="310" edge="1">
                    <mxGeometry relative="1" as="geometry"/>
                </mxCell>
                <mxCell id="164" value="" style="shape=doubleArrow;whiteSpace=wrap;html=1;labelBackgroundColor=none;fontFamily=Linux Libertine;fontSource=https%3A%2F%2Ffonts.googleapis.com%2Fcss%3Ffamily%3DLinux%2BLibertine;fontSize=16;arrowWidth=0.5767686926527971;arrowSize=0.28300741072263447;" parent="1" vertex="1">
                    <mxGeometry x="654" y="449.28" width="62" height="44.98" as="geometry"/>
                </mxCell>
                <mxCell id="jgXYTICAqJ4VR1ii6tp_-37" value="&lt;font data-font-src=&quot;https://fonts.googleapis.com/css?family=Linux+Libertine&quot; face=&quot;Linux Libertine&quot;&gt;SpMV&lt;/font&gt;" style="text;html=1;strokeColor=none;fillColor=none;align=center;verticalAlign=middle;whiteSpace=wrap;rounded=0;fontSize=12;" parent="1" vertex="1">
                    <mxGeometry x="665" y="457.09" width="40" height="30" as="geometry"/>
                </mxCell>
                <mxCell id="367" value="&lt;div style=&quot;text-align: center;&quot;&gt;&lt;span style=&quot;background-color: initial;&quot;&gt;&lt;font face=&quot;Linux Libertine&quot; color=&quot;#333333&quot;&gt;write back&lt;/font&gt;&lt;/span&gt;&lt;/div&gt;" style="text;whiteSpace=wrap;html=1;" parent="1" vertex="1">
                    <mxGeometry x="589.0000000000001" y="377.25000000000006" width="74.6" height="36" as="geometry"/>
                </mxCell>
                <mxCell id="375" value="&lt;b style=&quot;border-color: var(--border-color); color: rgb(51, 51, 51); font-family: Helvetica; font-size: 12px; font-style: normal; font-variant-ligatures: normal; font-variant-caps: normal; letter-spacing: normal; orphans: 2; text-align: center; text-indent: 0px; text-transform: none; widows: 2; word-spacing: 0px; -webkit-text-stroke-width: 0px; text-decoration-thickness: initial; text-decoration-style: initial; text-decoration-color: initial;&quot;&gt;&lt;font style=&quot;border-color: var(--border-color);&quot; data-font-src=&quot;https://fonts.googleapis.com/css?family=Linux+Libertine&quot; face=&quot;Linux Libertine&quot;&gt;ALU&lt;/font&gt;&lt;/b&gt;" style="text;whiteSpace=wrap;html=1;" parent="1" vertex="1">
                    <mxGeometry x="978.5172750538793" y="357.26759462553883" width="53" height="37" as="geometry"/>
                </mxCell>
                <mxCell id="378" value="&lt;font style=&quot;font-size: 13px;&quot; color=&quot;#000000&quot;&gt;new vertex&lt;/font&gt;" style="rounded=0;whiteSpace=wrap;html=1;labelBackgroundColor=none;fillStyle=solid;strokeColor=default;fontFamily=Linux Libertine;fontSource=https%3A%2F%2Ffonts.googleapis.com%2Fcss%3Ffamily%3DLinux%2BLibertine;fontSize=16;fontColor=#999999;fillColor=none;gradientColor=none;rotation=-90;" parent="1" vertex="1">
                    <mxGeometry x="1062.01" y="458.90000000000003" width="66.98" height="17.45" as="geometry"/>
                </mxCell>
                <mxCell id="381" value="&lt;font data-font-src=&quot;https://fonts.googleapis.com/css?family=Linux+Libertine&quot; face=&quot;Linux Libertine&quot; style=&quot;font-size: 12px;&quot;&gt;GE Vertex&amp;nbsp;&lt;/font&gt;" style="rounded=1;whiteSpace=wrap;html=1;" parent="1" vertex="1">
                    <mxGeometry x="715.32" y="198" width="107.16" height="26.05" as="geometry"/>
                </mxCell>
                <mxCell id="383" value="" style="shape=singleArrow;direction=west;whiteSpace=wrap;html=1;labelBackgroundColor=none;arrowWidth=0.5737474120082802;arrowSize=0.4056165219659669;rotation=270;" parent="1" vertex="1">
                    <mxGeometry x="750.65" y="205.19" width="36.5" height="103" as="geometry"/>
                </mxCell>
                <mxCell id="P1_Tf1mKQQPxvqgQwp_o-301" value="&lt;font data-font-src=&quot;https://fonts.googleapis.com/css?family=Linux+Libertine&quot; face=&quot;Linux Libertine&quot;&gt;GE Vertex&lt;/font&gt;" style="text;html=1;strokeColor=none;fillColor=none;align=center;verticalAlign=middle;whiteSpace=wrap;rounded=0;fontSize=12;" parent="1" vertex="1">
                    <mxGeometry x="727.1499999999999" y="238.05" width="85.47" height="30" as="geometry"/>
                </mxCell>
                <mxCell id="399" style="edgeStyle=orthogonalEdgeStyle;shape=flexArrow;html=1;entryX=0.5;entryY=1;entryDx=0;entryDy=0;fontSize=12;fontColor=#000000;fillColor=default;endWidth=9.142857142857142;endSize=3.2857142857142856;" parent="1" source="384" target="178" edge="1">
                    <mxGeometry relative="1" as="geometry">
                        <Array as="points">
                            <mxPoint x="1028" y="181"/>
                            <mxPoint x="919" y="181"/>
                            <mxPoint x="919" y="157"/>
                            <mxPoint x="599" y="157"/>
                        </Array>
                    </mxGeometry>
                </mxCell>
                <mxCell id="384" value="&lt;font data-font-src=&quot;https://fonts.googleapis.com/css?family=Linux+Libertine&quot; face=&quot;Linux Libertine&quot; style=&quot;&quot;&gt;&lt;font style=&quot;font-size: 12px;&quot;&gt;Vertex WB&lt;/font&gt;&lt;br&gt;&lt;/font&gt;" style="rounded=1;whiteSpace=wrap;html=1;" parent="1" vertex="1">
                    <mxGeometry x="974.48" y="199" width="107.16" height="25.55" as="geometry"/>
                </mxCell>
                <mxCell id="385" value="" style="shape=singleArrow;direction=west;whiteSpace=wrap;html=1;labelBackgroundColor=none;arrowWidth=0.5737474120082802;arrowSize=0.4056165219659669;rotation=90;" parent="1" vertex="1">
                    <mxGeometry x="1010.03" y="201.53" width="36.24" height="110.05" as="geometry"/>
                </mxCell>
                <mxCell id="31" value="&lt;font data-font-src=&quot;https://fonts.googleapis.com/css?family=Linux+Libertine&quot; face=&quot;Linux Libertine&quot;&gt;New Vertex&lt;/font&gt;" style="text;html=1;strokeColor=none;fillColor=none;align=center;verticalAlign=middle;whiteSpace=wrap;rounded=0;fontSize=12;" parent="1" vertex="1">
                    <mxGeometry x="992.2" y="242.19" width="72.25" height="36" as="geometry"/>
                </mxCell>
                <mxCell id="389" value="" style="shape=singleArrow;direction=south;whiteSpace=wrap;html=1;labelBackgroundColor=none;arrowWidth=0.6801304095426616;arrowSize=0.4691735442120911;rotation=-90;strokeColor=#000000;" parent="1" vertex="1">
                    <mxGeometry x="814.74" y="327.01" width="43" height="41.91" as="geometry"/>
                </mxCell>
                <mxCell id="P1_Tf1mKQQPxvqgQwp_o-238" value="&lt;font data-font-src=&quot;https://fonts.googleapis.com/css?family=Linux+Libertine&quot; face=&quot;Linux Libertine&quot;&gt;Vertex&lt;/font&gt;" style="text;html=1;strokeColor=none;fillColor=none;align=center;verticalAlign=middle;whiteSpace=wrap;rounded=0;fontSize=12;" parent="1" vertex="1">
                    <mxGeometry x="812.6200000000001" y="332.96000000000004" width="40" height="30" as="geometry"/>
                </mxCell>
                <mxCell id="390" value="&lt;div style=&quot;text-align: center;&quot;&gt;&lt;span style=&quot;background-color: initial; font-size: 14px;&quot;&gt;&lt;font face=&quot;Linux Libertine&quot;&gt;&lt;b&gt;&amp;nbsp;GE&lt;/b&gt;&lt;/font&gt;&lt;/span&gt;&lt;/div&gt;" style="text;whiteSpace=wrap;html=1;labelBackgroundColor=none;" parent="1" vertex="1">
                    <mxGeometry x="753.35" y="280" width="31.11" height="28.37" as="geometry"/>
                </mxCell>
                <mxCell id="395" style="edgeStyle=orthogonalEdgeStyle;shape=flexArrow;html=1;fontSize=12;fontColor=#000000;fillColor=default;endWidth=11.451612903225806;endSize=4.504838709677419;" parent="1" edge="1">
                    <mxGeometry relative="1" as="geometry">
                        <mxPoint x="457" y="139" as="sourcePoint"/>
                        <mxPoint x="457" y="195" as="targetPoint"/>
                    </mxGeometry>
                </mxCell>
                <mxCell id="396" style="edgeStyle=orthogonalEdgeStyle;shape=flexArrow;html=1;fontSize=12;fontColor=#000000;fillColor=default;endWidth=11.52;endSize=3.8272000000000004;" parent="1" edge="1">
                    <mxGeometry relative="1" as="geometry">
                        <mxPoint x="457" y="139" as="sourcePoint"/>
                        <mxPoint x="769" y="195" as="targetPoint"/>
                        <Array as="points">
                            <mxPoint x="457" y="173"/>
                            <mxPoint x="769" y="173"/>
                        </Array>
                    </mxGeometry>
                </mxCell>
                <mxCell id="400" value="&lt;span style=&quot;color: rgb(51, 51, 51); font-family: &amp;quot;Linux Libertine&amp;quot;; text-align: center;&quot;&gt;&lt;b&gt;&lt;font style=&quot;font-size: 16px;&quot;&gt;............&lt;/font&gt;&lt;/b&gt;&lt;/span&gt;" style="text;whiteSpace=wrap;html=1;rotation=-90;" parent="1" vertex="1">
                    <mxGeometry x="339.31999999999994" y="455.19000000000005" width="67.42" height="36" as="geometry"/>
                </mxCell>
                <mxCell id="402" value="&lt;i&gt;&lt;font data-font-src=&quot;https://fonts.googleapis.com/css?family=Linux+Libertine&quot; face=&quot;Linux Libertine&quot;&gt;e&lt;/font&gt;&lt;/i&gt;" style="text;html=1;strokeColor=none;fillColor=none;align=center;verticalAlign=middle;whiteSpace=wrap;rounded=0;fontSize=12;" parent="1" vertex="1">
                    <mxGeometry x="369.8" y="377.99" width="13.01" height="16.28" as="geometry"/>
                </mxCell>
                <mxCell id="404" value="&lt;font face=&quot;Linux Libertine&quot;&gt;&lt;i&gt;v&lt;/i&gt;&lt;/font&gt;" style="text;html=1;strokeColor=none;fillColor=none;align=center;verticalAlign=middle;whiteSpace=wrap;rounded=0;fontSize=12;" parent="1" vertex="1">
                    <mxGeometry x="369.8" y="396.64" width="13.01" height="16.28" as="geometry"/>
                </mxCell>
            </root>
        </mxGraphModel>
    </diagram>
    <diagram id="mYUP_dx334Qp0AKUl84H" name="Draft">
        <mxGraphModel dx="1437" dy="768" grid="0" gridSize="10" guides="1" tooltips="1" connect="1" arrows="1" fold="1" page="1" pageScale="1" pageWidth="850" pageHeight="1100" math="0" shadow="0">
            <root>
                <mxCell id="0"/>
                <mxCell id="1" parent="0"/>
            </root>
        </mxGraphModel>
    </diagram>
</mxfile>